{"glyphs":{"0":{"ha":1308,"x_min":0,"x_max":1206,"o":"m 1206 551 l 1206 204 q 1147 60 1206 119 q 1002 0 1087 0 l 204 0 q 60 60 119 0 q 0 204 0 119 l 0 551 q 60 695 0 635 q 204 755 119 755 l 1002 755 q 1147 695 1087 755 q 1206 551 1206 635 m 1076 204 l 1076 551 q 1055 604 1076 582 q 1002 625 1033 625 l 204 625 q 152 604 174 625 q 130 551 130 582 l 130 204 q 152 152 130 174 q 204 130 174 130 l 1002 130 q 1055 152 1033 130 q 1076 204 1076 174 "},"1":{"ha":310,"x_min":0,"x_max":208,"o":"m 64 625 l 0 625 l 0 755 l 65 755 q 157 723 116 755 q 208 612 208 683 l 208 0 l 78 0 l 78 612 l 78 616 l 77 619 l 77 621 l 77 621 l 77 621 q 72 623 76 622 q 64 625 67 625 "},"2":{"ha":1256,"x_min":0,"x_max":1154,"o":"m 130 130 l 1089 130 l 1089 0 l 65 0 q 19 19 38 0 q 0 65 0 38 l 0 221 q 77 393 0 331 q 221 442 140 442 l 933 442 q 1008 477 985 442 q 1021 508 1017 491 q 1024 534 1024 520 q 989 609 1024 586 q 959 621 976 617 q 933 625 946 625 l 65 625 l 65 755 l 933 755 q 1077 705 1015 755 q 1154 534 1154 644 q 1105 389 1154 452 q 933 312 1044 312 l 222 312 q 196 309 208 312 q 165 296 179 305 q 130 221 130 273 l 130 130 "},"3":{"ha":1308,"x_min":0,"x_max":1206,"o":"m 170 439 l 1002 439 q 1055 461 1033 439 q 1076 513 1076 483 l 1076 551 q 1055 603 1076 582 q 1002 625 1033 625 l 204 625 q 152 603 174 625 q 130 551 130 582 l 0 551 q 60 695 0 635 q 204 755 119 755 l 1002 755 q 1147 695 1087 755 q 1206 551 1206 635 l 1206 513 q 1152 374 1206 433 q 1206 235 1206 316 l 1206 203 q 1147 59 1206 119 q 1002 -1 1087 -1 l 204 -1 q 60 59 119 -1 q 0 203 0 119 l 130 203 q 152 151 130 173 q 204 130 174 130 l 1002 130 q 1055 151 1033 130 q 1076 203 1076 173 l 1076 235 q 1055 288 1076 266 q 1002 309 1033 309 l 170 309 l 170 439 "},"4":{"ha":1329,"x_min":0,"x_max":1227,"o":"m 1149 754 l 1149 365 l 1227 365 l 1227 235 l 1149 235 l 1149 0 l 1019 0 l 1019 235 l 68 235 q 31 247 47 235 q 7 279 13 259 q 7 320 0 300 q 31 353 14 340 l 578 743 l 631 781 l 706 675 l 653 637 l 273 365 l 1019 365 l 1019 754 l 1149 754 "},"5":{"ha":1308,"x_min":0,"x_max":1206,"o":"m 1002 317 l 65 317 q 19 336 38 317 q 0 382 0 355 l 0 690 q 19 736 0 717 q 65 755 38 755 l 1159 755 l 1159 625 l 130 625 l 130 447 l 1002 447 q 1147 387 1087 447 q 1206 243 1206 328 l 1206 204 q 1147 60 1206 119 q 1002 0 1087 0 l 204 0 q 60 60 119 0 q 0 204 0 119 l 130 204 q 152 152 130 174 q 204 130 174 130 l 1002 130 q 1055 152 1033 130 q 1076 204 1076 174 l 1076 243 q 1055 295 1076 273 q 1002 317 1033 317 "},"6":{"ha":1308,"x_min":0,"x_max":1206,"o":"m 1139 756 l 1139 626 l 204 626 q 152 604 174 626 q 130 552 130 583 l 130 492 q 204 505 164 505 l 1002 505 q 1147 445 1087 505 q 1206 300 1206 385 l 1206 204 q 1147 60 1206 119 q 1002 0 1087 0 l 204 0 q 60 60 119 0 q 0 204 0 119 l 0 552 q 60 696 0 637 q 204 756 119 756 l 1139 756 m 1076 204 l 1076 300 q 1055 353 1076 331 q 1002 374 1033 374 l 204 374 q 152 353 174 374 q 130 300 130 331 l 130 204 q 152 152 130 174 q 204 130 174 130 l 1002 130 q 1055 152 1033 130 q 1076 204 1076 174 "},"7":{"ha":1259,"x_min":0,"x_max":1157,"o":"m 924 624 l 0 624 l 0 754 l 1080 754 q 1140 714 1124 754 q 1126 644 1157 674 l 510 18 l 465 -28 l 372 64 l 418 110 l 924 624 "},"8":{"ha":1308,"x_min":0,"x_max":1206,"o":"m 54 380 q 0 519 0 439 l 0 551 q 60 696 0 636 q 204 755 119 755 l 1002 755 q 1147 696 1087 755 q 1206 551 1206 636 l 1206 519 q 1152 380 1206 439 q 1206 241 1206 321 l 1206 203 q 1147 60 1206 119 q 1002 0 1087 0 l 204 0 q 60 60 119 0 q 0 203 0 119 l 0 241 q 54 380 0 321 m 1076 203 l 1076 241 q 1055 294 1076 272 q 1002 315 1033 315 l 204 315 q 152 294 174 315 q 130 241 130 272 l 130 203 q 152 152 130 173 q 204 130 174 130 l 1002 130 q 1055 152 1033 130 q 1076 203 1076 173 m 1076 519 l 1076 551 q 1055 604 1076 582 q 1002 625 1033 625 l 204 625 q 152 604 174 625 q 130 551 130 582 l 130 519 q 152 467 130 489 q 204 446 174 446 l 1002 446 q 1055 467 1033 446 q 1076 519 1076 489 "},"9":{"ha":1308,"x_min":0,"x_max":1206,"o":"m 68 0 l 68 130 l 1002 130 q 1055 152 1033 130 q 1076 204 1076 174 l 1076 264 q 1002 252 1042 252 l 204 252 q 60 311 119 252 q 0 456 0 371 l 0 552 q 60 696 0 637 q 204 756 119 756 l 1002 756 q 1147 696 1087 756 q 1206 552 1206 637 l 1206 204 q 1147 60 1206 119 q 1002 0 1087 0 l 68 0 m 130 552 l 130 456 q 152 404 130 425 q 204 382 174 382 l 1002 382 q 1055 404 1033 382 q 1076 456 1076 425 l 1076 552 q 1055 604 1076 583 q 1002 626 1033 626 l 204 626 q 152 604 174 626 q 130 552 130 583 "},"\u0000":{"ha":102,"x_min":0,"x_max":0,"o":""},"\u001d":{"ha":102,"x_min":0,"x_max":0,"o":""}," ":{"ha":299,"x_min":0,"x_max":0,"o":""}," ":{"ha":299,"x_min":0,"x_max":0,"o":""},"!":{"ha":233,"x_min":0,"x_max":131,"o":"m 0 203 l 0 754 l 130 754 l 130 203 l 0 203 m 1 0 l 1 130 l 131 130 l 131 0 l 1 0 "},"\"":{"ha":423,"x_min":0,"x_max":321,"o":"m 0 578 l 0 830 l 130 830 l 130 578 l 0 578 m 191 578 l 191 830 l 321 830 l 321 578 l 191 578 "},"#":{"ha":703,"x_min":0,"x_max":602,"o":"m 97 333 l 31 333 l 0 203 l 69 203 l 26 0 l 170 0 l 212 203 l 313 203 l 270 0 l 414 0 l 456 203 l 528 203 l 558 333 l 483 333 l 501 424 l 571 424 l 602 554 l 528 554 l 569 755 l 431 755 l 388 554 l 283 554 l 325 755 l 186 755 l 144 554 l 74 554 l 43 424 l 116 424 l 97 333 m 257 424 l 360 424 l 341 333 l 239 333 l 257 424 "},"$":{"ha":1256,"x_min":0,"x_max":1154,"o":"m 221 755 l 498 755 l 498 829 l 628 829 l 628 755 l 1089 755 l 1089 625 l 222 625 q 196 622 208 625 q 165 610 179 618 q 130 534 130 587 q 134 509 130 521 q 146 478 137 491 q 221 443 169 443 l 933 443 q 1077 393 1015 443 q 1154 221 1154 332 q 1105 77 1154 140 q 933 0 1044 0 l 628 0 l 628 -75 l 498 -75 l 498 0 l 65 0 l 65 130 l 933 130 q 1008 165 985 130 q 1021 196 1017 178 q 1024 221 1024 208 q 989 297 1024 274 q 959 309 976 305 q 933 313 946 312 l 221 313 q 50 390 111 313 q 0 534 0 452 q 77 705 0 644 q 221 755 140 755 "},"%":{"ha":1345,"x_min":0,"x_max":1243,"o":"m 969 755 l 863 830 l 271 -2 l 377 -78 l 969 755 m 1243 334 l 1243 142 q 1202 41 1243 83 q 1101 0 1160 0 l 889 0 q 789 41 831 0 q 747 142 747 83 l 747 334 q 789 434 747 393 q 889 476 831 476 l 1101 476 q 1202 434 1160 476 q 1243 334 1243 393 m 1113 142 l 1113 334 q 1101 346 1113 346 l 889 346 q 878 334 878 346 l 878 142 q 889 130 878 130 l 1101 130 q 1113 142 1113 130 m 496 613 l 496 421 q 454 321 496 362 q 354 279 413 279 l 142 279 q 41 321 83 279 q 0 421 0 362 l 0 613 q 41 713 0 672 q 142 755 83 755 l 354 755 q 454 713 413 755 q 496 613 496 672 m 366 421 l 366 613 q 354 625 366 625 l 142 625 q 130 613 130 625 l 130 421 q 142 410 130 410 l 354 410 q 366 421 366 410 "},"&":{"ha":1364,"x_min":0,"x_max":1263,"o":"m 54 382 q 0 521 0 441 l 0 560 q 60 704 0 644 q 204 764 119 764 l 968 764 q 1112 704 1052 764 q 1172 560 1172 644 l 1042 560 q 1020 612 1042 591 q 968 633 998 633 l 204 633 q 152 612 174 633 q 130 560 130 591 l 130 521 q 152 469 130 490 q 204 447 174 447 l 1263 447 l 1263 326 q 1194 303 1215 326 q 1175 266 1181 290 q 1172 248 1173 257 q 1172 235 1171 241 l 1172 204 q 1112 60 1172 119 q 968 0 1052 0 l 204 0 q 60 60 119 0 q 0 204 0 119 l 0 243 q 54 382 0 323 m 1055 317 l 204 317 q 152 295 174 317 q 130 243 130 273 l 130 204 q 152 152 130 174 q 204 130 174 130 l 968 130 q 1020 152 998 130 q 1042 204 1042 174 l 1042 233 q 1042 247 1041 239 q 1046 288 1042 267 q 1055 317 1050 302 "},"'":{"ha":231,"x_min":0,"x_max":130,"o":"m 0 578 l 0 830 l 130 830 l 130 578 l 0 578 "},"(":{"ha":385,"x_min":0,"x_max":283,"o":"m 173 835 l 283 756 l 282 755 l 281 755 q 279 751 281 753 q 273 736 276 745 q 250 685 260 713 q 195 506 214 597 q 280 -1 138 215 l 175 -88 q 65 526 0 180 q 129 742 85 636 q 158 807 143 777 q 168 826 163 817 q 171 831 170 829 l 172 833 l 173 835 "},")":{"ha":384,"x_min":0,"x_max":282,"o":"m 0 756 l 110 835 l 111 833 l 111 831 q 115 826 113 829 q 124 807 119 817 q 153 742 139 777 q 217 526 197 636 q 107 -88 282 180 l 2 -1 q 87 506 144 215 q 33 685 69 597 q 10 736 22 713 q 3 751 6 745 q 1 755 2 753 l 0 755 l 0 756 "},"*":{"ha":502,"x_min":0,"x_max":400,"o":"m 286 783 l 400 840 l 353 938 l 255 890 l 255 996 l 146 996 l 146 890 l 49 937 l 0 840 l 115 783 l 41 672 l 132 612 l 201 714 l 269 612 l 360 672 l 286 783 "},"+":{"ha":524,"x_min":0,"x_max":422,"o":"m 277 589 l 277 442 l 422 442 l 422 312 l 277 312 l 277 166 l 146 166 l 146 312 l 0 312 l 0 442 l 146 442 l 146 589 l 277 589 "},",":{"ha":232,"x_min":0,"x_max":130,"o":"m 0 -113 l 31 0 l 0 0 l 0 130 l 130 130 l 130 0 l 78 -113 l 0 -113 "},"-":{"ha":524,"x_min":0,"x_max":422,"o":"m 422 312 l 0 312 l 0 442 l 422 442 l 422 312 "},"­":{"ha":524,"x_min":0,"x_max":422,"o":"m 422 312 l 422 442 l 0 442 l 0 312 l 422 312 "},".":{"ha":232,"x_min":0,"x_max":130,"o":"m 0 0 l 0 130 l 130 130 l 130 0 l 0 0 "},"/":{"ha":559,"x_min":0,"x_max":458,"o":"m 458 844 l 335 887 l 0 -78 l 123 -121 l 458 844 "},":":{"ha":232,"x_min":0,"x_max":130,"o":"m 0 0 l 0 130 l 130 130 l 130 0 l 0 0 m 0 626 l 0 756 l 130 756 l 130 626 l 0 626 "},";":{"ha":233,"x_min":0,"x_max":131,"o":"m 1 626 l 1 756 l 131 756 l 131 626 l 1 626 m 0 0 l 31 0 l 0 -113 l 78 -113 l 130 0 l 130 130 l 0 130 l 0 0 "},";":{"ha":233,"x_min":0,"x_max":131,"o":"m 1 626 l 131 626 l 131 756 l 1 756 l 1 626 m 0 0 l 0 130 l 130 130 l 130 0 l 78 -113 l 0 -113 l 31 0 l 0 0 "},"<":{"ha":816,"x_min":0,"x_max":714,"o":"m 224 379 l 714 159 l 661 41 l 39 319 q 0 379 0 337 q 39 439 0 421 l 661 718 l 714 599 l 224 379 "},"=":{"ha":597,"x_min":0,"x_max":496,"o":"m 496 210 l 0 210 l 0 340 l 496 340 l 496 210 m 496 414 l 0 414 l 0 544 l 496 544 l 496 414 "},">":{"ha":816,"x_min":0,"x_max":714,"o":"m 0 159 l 490 379 l 0 599 l 54 718 l 675 439 q 714 379 714 421 q 675 319 714 337 l 54 41 l 0 159 "},"?":{"ha":1191,"x_min":0,"x_max":1089,"o":"m 0 625 l 0 755 l 868 755 q 1012 705 949 755 q 1089 533 1089 644 q 1040 389 1089 452 q 868 312 979 312 l 513 312 q 487 309 499 312 q 456 296 469 305 q 421 221 421 273 l 421 203 l 291 203 l 291 221 q 368 393 291 331 q 512 442 431 442 l 868 442 q 943 477 920 442 q 956 508 952 490 q 959 533 959 520 q 924 609 959 586 q 894 621 911 617 q 868 625 881 624 l 0 625 m 290 0 l 290 130 l 420 130 l 420 0 l 290 0 "},"@":{"ha":1309,"x_min":0,"x_max":1207,"o":"m 204 130 l 1185 130 l 1185 0 l 204 0 q 60 60 119 0 q 0 204 0 119 l 0 551 q 60 695 0 635 q 204 755 119 755 l 1002 755 q 1147 695 1087 755 q 1206 551 1206 635 l 1206 408 q 1207 393 1207 400 l 1207 361 q 1162 253 1207 298 q 1054 208 1117 208 l 366 208 q 258 253 303 208 q 213 361 213 298 l 213 393 q 258 500 213 456 q 366 546 303 546 l 1076 546 l 1076 551 q 1055 604 1076 582 q 1002 625 1033 625 l 204 625 q 152 604 174 625 q 130 551 130 582 l 130 204 q 152 152 130 174 q 204 130 174 130 m 1074 361 l 1074 416 l 363 416 q 347 409 354 416 q 340 393 340 402 l 340 361 q 347 345 340 352 q 363 338 354 338 l 1051 338 q 1067 345 1061 338 q 1074 361 1074 352 "},"A":{"ha":1308,"x_min":0,"x_max":1206,"o":"m 1076 230 l 130 230 l 130 0 l 0 0 l 0 551 q 60 695 0 635 q 204 755 119 755 l 1002 755 q 1147 695 1087 755 q 1206 551 1206 635 l 1206 0 l 1076 0 l 1076 230 m 130 360 l 1076 360 l 1076 551 q 1055 603 1076 581 q 1002 625 1033 625 l 204 625 q 152 603 174 625 q 130 551 130 581 l 130 360 "},"B":{"ha":1326,"x_min":0,"x_max":1224,"o":"m 130 130 l 1020 130 q 1072 152 1050 130 q 1094 204 1094 174 l 1094 238 q 1072 290 1094 269 q 1020 311 1050 311 l 130 311 l 130 130 m 130 624 l 130 446 l 1020 446 q 1072 468 1050 446 q 1094 520 1094 490 l 1094 550 q 1072 602 1094 581 q 1020 624 1050 624 l 130 624 m 1167 378 q 1224 238 1224 320 l 1224 204 q 1164 60 1224 119 q 1020 0 1104 0 l 65 0 q 19 19 38 0 q 0 65 0 38 l 0 689 q 19 735 0 716 q 65 754 38 754 l 1020 754 q 1164 694 1104 754 q 1224 550 1224 635 l 1224 520 q 1167 378 1224 437 "},"C":{"ha":1339,"x_min":0,"x_max":1237,"o":"m 1237 130 l 1237 0 l 204 0 q 60 60 119 0 q 0 204 0 119 l 0 551 q 60 695 0 635 q 204 755 119 755 l 1237 755 l 1237 625 l 204 625 q 152 604 174 625 q 130 551 130 582 l 130 204 q 152 152 130 174 q 204 130 174 130 l 1237 130 "},"D":{"ha":1404,"x_min":0,"x_max":1302,"o":"m 130 130 l 924 130 q 1099 203 1027 130 q 1172 378 1172 275 q 1099 553 1172 480 q 924 625 1027 625 l 130 625 l 130 130 m 924 0 l 65 0 q 19 19 38 0 q 0 65 0 38 l 0 690 q 19 736 0 717 q 65 755 38 755 l 924 755 q 1192 644 1080 755 q 1302 378 1302 534 q 1192 111 1302 222 q 924 0 1080 0 "},"E":{"ha":1339,"x_min":0,"x_max":1237,"o":"m 1237 308 l 130 308 l 130 204 q 152 152 130 174 q 204 130 174 130 l 1237 130 l 1237 0 l 204 0 q 60 60 119 0 q 0 204 0 119 l 0 551 q 60 695 0 635 q 204 755 119 755 l 1237 755 l 1237 625 l 204 625 q 152 604 174 625 q 130 551 130 582 l 130 438 l 1237 438 l 1237 308 "},"F":{"ha":1247,"x_min":0,"x_max":1145,"o":"m 0 0 l 0 690 q 19 736 0 717 q 65 755 38 755 l 1145 755 l 1145 625 l 130 625 l 130 443 l 1145 443 l 1145 313 l 130 313 l 130 0 l 0 0 "},"G":{"ha":1308,"x_min":0,"x_max":1207,"o":"m 1034 458 l 1207 458 l 1207 204 q 1147 60 1207 119 q 1002 0 1087 0 l 204 0 q 60 60 119 0 q 0 204 0 119 l 0 551 q 60 695 0 635 q 204 755 119 755 l 1206 755 l 1206 625 l 204 625 q 152 604 174 625 q 130 551 130 582 l 130 204 q 152 152 130 174 q 204 130 174 130 l 1002 130 q 1055 152 1033 130 q 1076 204 1076 174 l 1076 328 l 1034 328 l 1034 458 "},"H":{"ha":1343,"x_min":0,"x_max":1241,"o":"m 1111 443 l 1111 755 l 1241 755 l 1241 0 l 1111 0 l 1111 313 l 130 313 l 130 0 l 0 0 l 0 755 l 130 755 l 130 443 l 1111 443 "},"I":{"ha":232,"x_min":0,"x_max":130,"o":"m 0 0 l 0 754 l 130 754 l 130 0 l 0 0 "},"J":{"ha":1104,"x_min":0,"x_max":1002,"o":"m 872 755 l 1002 755 l 1002 204 q 943 60 1002 119 q 799 0 883 0 l 0 0 l 0 130 l 799 130 q 850 152 829 130 q 872 204 872 174 l 872 755 "},"K":{"ha":1264,"x_min":0,"x_max":1162,"o":"m 1161 646 l 732 441 l 1162 87 l 1080 -14 l 603 380 l 130 154 l 130 1 l 0 1 l 0 755 l 130 755 l 130 298 l 1105 764 l 1161 646 "},"L":{"ha":1104,"x_min":0,"x_max":1002,"o":"m 0 755 l 130 755 l 130 204 q 152 152 130 174 q 204 130 174 130 l 1002 130 l 1002 0 l 204 0 q 60 60 119 0 q 0 204 0 119 l 0 755 "},"M":{"ha":1363,"x_min":0,"x_max":1261,"o":"m 1242 644 q 1243 645 1242 644 l 1242 644 m 1131 0 l 1131 530 l 677 63 q 631 43 658 43 q 584 63 603 43 l 130 530 l 130 0 l 0 0 l 0 690 q 41 750 0 734 q 112 735 81 767 l 631 202 l 1149 735 q 1221 750 1180 767 q 1261 690 1261 734 l 1261 0 l 1131 0 "},"N":{"ha":1363,"x_min":0,"x_max":1261,"o":"m 1131 751 l 1261 751 l 1261 58 l 1261 60 q 1259 42 1261 50 q 1236 7 1254 20 q 1196 -7 1219 -7 q 1162 3 1179 -7 l 1164 1 l 130 588 l 130 1 l 0 1 l 0 699 q 32 755 0 736 q 97 755 64 774 l 1131 170 l 1131 751 "},"O":{"ha":1308,"x_min":0,"x_max":1206,"o":"m 1206 551 l 1206 204 q 1147 60 1206 119 q 1002 0 1087 0 l 204 0 q 60 60 119 0 q 0 204 0 119 l 0 551 q 60 695 0 635 q 204 755 119 755 l 1002 755 q 1147 695 1087 755 q 1206 551 1206 635 m 1076 204 l 1076 551 q 1055 604 1076 582 q 1002 625 1033 625 l 204 625 q 152 604 174 625 q 130 551 130 582 l 130 204 q 152 152 130 174 q 204 130 174 130 l 1002 130 q 1055 152 1033 130 q 1076 204 1076 174 "},"P":{"ha":1308,"x_min":0,"x_max":1206,"o":"m 0 0 l 0 551 q 60 695 0 635 q 204 755 119 755 l 1002 755 q 1147 695 1087 755 q 1206 551 1206 635 l 1206 365 q 1147 220 1206 280 q 1002 161 1087 161 l 130 161 l 130 0 l 0 0 m 130 551 l 130 291 l 1002 291 q 1055 313 1033 291 q 1076 365 1076 334 l 1076 551 q 1055 603 1076 581 q 1002 625 1033 625 l 204 625 q 152 603 174 625 q 130 551 130 581 "},"Q":{"ha":1308,"x_min":0,"x_max":1206,"o":"m 1076 203 l 1076 553 q 1055 604 1076 583 q 1002 626 1033 626 l 204 626 q 152 604 174 626 q 130 553 130 583 l 130 203 q 152 151 130 173 q 204 130 174 130 l 1002 130 q 1055 151 1033 130 q 1076 203 1076 173 m 545 -1 l 204 -1 q 60 59 119 -1 q 0 203 0 119 l 0 553 q 60 696 0 637 q 204 756 119 756 l 1002 756 q 1147 696 1087 756 q 1206 553 1206 637 l 1206 203 q 1147 59 1206 119 q 1002 -1 1087 -1 l 676 -1 q 696 -36 680 -20 q 748 -58 718 -58 l 826 -58 l 826 -188 l 748 -188 q 604 -128 663 -188 q 545 -1 550 -75 "},"R":{"ha":1326,"x_min":0,"x_max":1224,"o":"m 130 370 l 966 370 q 1074 423 1041 370 q 1090 465 1085 441 q 1093 484 1092 475 q 1094 498 1094 491 q 1041 605 1094 572 q 999 621 1023 616 q 981 624 989 623 q 966 625 973 625 l 161 625 q 134 612 141 625 q 131 602 132 608 l 130 597 l 130 370 m 888 240 l 130 240 l 130 0 l 0 0 l 0 594 q 56 719 0 674 q 161 755 102 755 l 966 755 q 1134 697 1061 755 q 1224 498 1224 626 q 1166 330 1224 404 q 1055 253 1121 274 l 1177 123 l 1222 76 l 1128 -14 l 1083 33 l 927 198 l 888 240 "},"S":{"ha":1256,"x_min":-20,"x_max":1175,"o":"m 1154 755 l 1154 625 l 201 625 q 176 622 188 625 q 145 610 159 618 q 110 534 110 587 q 113 509 110 521 q 125 478 117 491 q 201 443 149 443 l 954 443 q 1097 393 1035 443 q 1175 221 1175 332 q 1125 77 1175 140 q 954 0 1064 0 l 0 0 l 0 130 l 954 130 q 1029 165 1006 130 q 1042 196 1038 178 q 1044 221 1044 208 q 1009 297 1044 274 q 979 309 996 305 q 954 313 966 312 l 201 313 q 29 390 91 313 q -20 534 -20 452 q 57 705 -20 644 q 201 755 120 755 l 1154 755 "},"T":{"ha":1482,"x_min":0,"x_max":1380,"o":"m 625 0 l 625 625 l 0 625 l 0 755 l 1380 755 l 1380 625 l 755 625 l 755 0 l 625 0 "},"U":{"ha":1308,"x_min":0,"x_max":1206,"o":"m 130 755 l 130 204 q 152 152 130 174 q 204 130 174 130 l 1002 130 q 1055 152 1033 130 q 1076 204 1076 174 l 1076 755 l 1206 755 l 1206 204 q 1147 60 1206 119 q 1002 0 1087 0 l 204 0 q 60 60 119 0 q 0 204 0 119 l 0 755 l 130 755 "},"V":{"ha":1692,"x_min":0,"x_max":1590,"o":"m 795 146 l 1455 732 l 1503 775 l 1590 678 l 1541 635 l 838 9 q 795 -7 820 -7 q 751 9 770 -7 l 49 635 l 0 678 l 87 775 l 135 732 l 795 146 "},"W":{"ha":1691,"x_min":0,"x_max":1590,"o":"m 1196 642 l 880 267 l 970 159 l 1448 725 l 1490 775 l 1590 691 l 1548 642 l 1021 16 q 970 -7 1001 -7 q 921 16 941 -7 l 795 165 l 669 16 q 619 -7 649 -7 q 569 16 589 -7 l 42 642 l 0 691 l 100 775 l 142 725 l 619 159 l 709 267 l 393 642 l 351 691 l 451 775 l 493 725 l 795 368 l 1097 725 l 1139 775 l 1238 691 l 1196 642 "},"X":{"ha":1449,"x_min":0,"x_max":1347,"o":"m 1289 630 l 815 379 l 1289 130 l 1347 99 l 1288 -20 l 1230 10 l 673 304 l 117 10 l 60 -20 l 0 99 l 58 130 l 532 379 l 58 630 l 0 660 l 60 779 l 117 748 l 673 454 l 1230 748 l 1288 779 l 1347 660 l 1289 630 "},"Y":{"ha":1685,"x_min":0,"x_max":1584,"o":"m 726 0 l 726 262 l 0 665 l 63 779 l 791 374 l 1520 779 l 1584 665 l 857 261 l 857 0 l 726 0 "},"Z":{"ha":1361,"x_min":0,"x_max":1259,"o":"m 319 130 l 1221 130 l 1221 0 l 68 0 q 28 14 46 0 q 5 49 11 27 q 9 91 0 71 q 37 122 18 111 l 941 625 l 33 625 l 33 755 l 1190 755 q 1230 741 1213 755 q 1253 707 1248 728 q 1251 665 1259 685 q 1222 633 1242 644 l 319 130 "},"[":{"ha":323,"x_min":0,"x_max":221,"o":"m 130 755 l 130 1 l 221 1 l 221 -130 l 65 -130 q 19 -111 38 -130 q 0 -64 0 -92 l 0 821 q 19 867 0 848 q 65 886 38 886 l 221 886 l 221 755 l 130 755 "},"\\":{"ha":560,"x_min":0,"x_max":458,"o":"m 123 887 l 0 844 l 335 -121 l 458 -78 l 123 887 "},"]":{"ha":323,"x_min":0,"x_max":221,"o":"m 91 1 l 91 755 l 0 755 l 0 886 l 156 886 q 202 867 183 886 q 221 821 221 848 l 221 -64 q 202 -111 221 -92 q 156 -130 183 -130 l 0 -130 l 0 1 l 91 1 "},"^":{"ha":446,"x_min":0,"x_max":345,"o":"m 345 669 l 241 669 l 172 829 l 104 669 l 0 669 l 129 969 l 216 969 l 345 669 "},"_":{"ha":524,"x_min":0,"x_max":422,"o":"m 422 -131 l 0 -131 l 0 -1 l 422 -1 l 422 -131 "},"`":{"ha":415,"x_min":0,"x_max":313,"o":"m 313 926 l 224 831 l 0 1043 l 90 1138 l 313 926 "},"a":{"ha":1373,"x_min":-21,"x_max":1272,"o":"m 1141 435 l 183 435 q 39 375 98 435 q -21 231 -21 315 l -21 204 q 39 60 -21 119 q 183 0 98 0 l 1272 0 l 1272 551 q 1212 696 1272 636 q 1076 755 1155 753 l 196 755 q 60 696 117 753 q 0 551 0 636 l 0 549 l 130 549 l 130 551 q 152 604 130 582 q 204 625 174 625 l 1067 625 q 1120 604 1098 625 q 1141 551 1141 582 l 1141 435 m 1141 130 l 183 130 q 131 152 153 130 q 109 204 109 174 l 109 231 q 131 283 109 262 q 183 305 153 305 l 1141 305 l 1141 130 "},"b":{"ha":1326,"x_min":0,"x_max":1224,"o":"m 130 130 l 1020 130 q 1072 152 1050 130 q 1094 204 1094 174 l 1094 238 q 1072 290 1094 269 q 1020 311 1050 311 l 130 311 l 130 130 m 130 624 l 130 446 l 1020 446 q 1072 468 1050 446 q 1094 520 1094 490 l 1094 550 q 1072 602 1094 581 q 1020 624 1050 624 l 130 624 m 1167 378 q 1224 238 1224 320 l 1224 204 q 1164 60 1224 119 q 1020 0 1104 0 l 65 0 q 19 19 38 0 q 0 65 0 38 l 0 689 q 19 735 0 716 q 65 754 38 754 l 1020 754 q 1164 694 1104 754 q 1224 550 1224 635 l 1224 520 q 1167 378 1224 437 "},"c":{"ha":1339,"x_min":0,"x_max":1237,"o":"m 1237 130 l 1237 0 l 204 0 q 60 60 119 0 q 0 204 0 119 l 0 551 q 60 695 0 635 q 204 755 119 755 l 1237 755 l 1237 625 l 204 625 q 152 604 174 625 q 130 551 130 582 l 130 204 q 152 152 130 174 q 204 130 174 130 l 1237 130 "},"d":{"ha":1404,"x_min":0,"x_max":1302,"o":"m 130 130 l 924 130 q 1099 203 1027 130 q 1172 378 1172 275 q 1099 553 1172 480 q 924 625 1027 625 l 130 625 l 130 130 m 924 0 l 65 0 q 19 19 38 0 q 0 65 0 38 l 0 690 q 19 736 0 717 q 65 755 38 755 l 924 755 q 1192 644 1080 755 q 1302 378 1302 534 q 1192 111 1302 222 q 924 0 1080 0 "},"e":{"ha":1373,"x_min":0,"x_max":1272,"o":"m 1272 308 l 130 308 l 130 204 q 152 152 130 174 q 204 130 174 130 l 1067 130 q 1120 152 1098 130 q 1141 204 1141 174 l 1141 206 l 1272 206 l 1272 204 q 1212 60 1272 119 q 1076 0 1155 3 l 196 0 q 60 60 117 3 q 0 204 0 119 l 0 551 q 60 695 0 635 q 196 755 117 753 l 1076 755 q 1212 695 1155 753 q 1272 551 1272 635 l 1272 308 m 1067 625 l 204 625 q 152 604 174 625 q 130 551 130 582 l 130 438 l 1141 438 l 1141 551 q 1120 604 1141 582 q 1067 625 1098 625 "},"f":{"ha":1247,"x_min":0,"x_max":1145,"o":"m 0 0 l 0 690 q 19 736 0 717 q 65 755 38 755 l 1145 755 l 1145 625 l 130 625 l 130 443 l 1145 443 l 1145 313 l 130 313 l 130 0 l 0 0 "},"g":{"ha":1308,"x_min":0,"x_max":1206,"o":"m 1076 460 l 1206 460 l 1206 204 q 1147 60 1206 119 q 1002 0 1087 0 l 204 0 q 60 60 119 0 q 0 204 0 119 l 0 551 q 60 695 0 635 q 204 755 119 755 l 1206 755 l 1206 625 l 204 625 q 152 604 174 625 q 130 551 130 582 l 130 204 q 152 152 130 174 q 204 130 174 130 l 1002 130 q 1055 152 1033 130 q 1076 204 1076 174 l 1076 460 "},"h":{"ha":1343,"x_min":0,"x_max":1241,"o":"m 1111 443 l 1111 755 l 1241 755 l 1241 0 l 1111 0 l 1111 313 l 130 313 l 130 0 l 0 0 l 0 755 l 130 755 l 130 443 l 1111 443 "},"i":{"ha":232,"x_min":0,"x_max":130,"o":"m 0 0 l 0 754 l 130 754 l 130 0 l 0 0 "},"j":{"ha":1104,"x_min":0,"x_max":1002,"o":"m 872 755 l 1002 755 l 1002 204 q 943 60 1002 119 q 799 0 883 0 l 0 0 l 0 130 l 799 130 q 850 152 829 130 q 872 204 872 174 l 872 755 "},"k":{"ha":1264,"x_min":0,"x_max":1162,"o":"m 1161 646 l 732 441 l 1162 87 l 1080 -14 l 603 380 l 130 154 l 130 1 l 0 1 l 0 755 l 130 755 l 130 298 l 1105 764 l 1161 646 "},"l":{"ha":1104,"x_min":0,"x_max":1002,"o":"m 0 755 l 130 755 l 130 204 q 152 152 130 174 q 204 130 174 130 l 1002 130 l 1002 0 l 204 0 q 60 60 119 0 q 0 204 0 119 l 0 755 "},"m":{"ha":1360,"x_min":0,"x_max":1259,"o":"m 564 0 l 564 629 l 204 629 q 152 608 174 629 q 130 555 130 586 l 130 0 l 0 0 l 0 555 q 60 700 0 640 q 204 760 119 760 l 1055 760 q 1199 700 1139 760 q 1259 555 1259 640 l 1259 0 l 1128 0 l 1128 555 q 1107 608 1128 586 q 1055 629 1085 629 l 694 629 l 694 0 l 564 0 "},"n":{"ha":1308,"x_min":0,"x_max":1206,"o":"m 130 555 l 130 0 l 0 0 l 0 555 q 60 700 0 640 q 204 760 119 760 l 1002 760 q 1147 700 1087 760 q 1206 555 1206 640 l 1206 0 l 1076 0 l 1076 555 q 1055 608 1076 586 q 1002 629 1033 629 l 204 629 q 152 608 174 629 q 130 555 130 586 "},"o":{"ha":1308,"x_min":0,"x_max":1206,"o":"m 1206 551 l 1206 204 q 1147 60 1206 119 q 1002 0 1087 0 l 204 0 q 60 60 119 0 q 0 204 0 119 l 0 551 q 60 695 0 635 q 204 755 119 755 l 1002 755 q 1147 695 1087 755 q 1206 551 1206 635 m 1076 204 l 1076 551 q 1055 604 1076 582 q 1002 625 1033 625 l 204 625 q 152 604 174 625 q 130 551 130 582 l 130 204 q 152 152 130 174 q 204 130 174 130 l 1002 130 q 1055 152 1033 130 q 1076 204 1076 174 "},"p":{"ha":1308,"x_min":0,"x_max":1206,"o":"m 0 0 l 0 551 q 60 695 0 635 q 204 755 119 755 l 1002 755 q 1147 695 1087 755 q 1206 551 1206 635 l 1206 365 q 1147 220 1206 280 q 1002 161 1087 161 l 130 161 l 130 0 l 0 0 m 130 551 l 130 291 l 1002 291 q 1055 313 1033 291 q 1076 365 1076 334 l 1076 551 q 1055 603 1076 581 q 1002 625 1033 625 l 204 625 q 152 603 174 625 q 130 551 130 581 "},"q":{"ha":1308,"x_min":0,"x_max":1206,"o":"m 1076 203 l 1076 553 q 1055 604 1076 583 q 1002 626 1033 626 l 204 626 q 152 604 174 626 q 130 553 130 583 l 130 203 q 152 151 130 173 q 204 130 174 130 l 1002 130 q 1055 151 1033 130 q 1076 203 1076 173 m 545 -1 l 204 -1 q 60 59 119 -1 q 0 203 0 119 l 0 553 q 60 696 0 637 q 204 756 119 756 l 1002 756 q 1147 696 1087 756 q 1206 553 1206 637 l 1206 203 q 1147 59 1206 119 q 1002 -1 1087 -1 l 676 -1 q 696 -36 680 -20 q 748 -58 718 -58 l 826 -58 l 826 -188 l 748 -188 q 604 -128 663 -188 q 545 -1 550 -75 "},"r":{"ha":1326,"x_min":0,"x_max":1224,"o":"m 130 370 l 966 370 q 1074 423 1041 370 q 1090 465 1085 441 q 1093 484 1092 475 q 1094 498 1094 491 q 1041 605 1094 572 q 999 621 1023 616 q 981 624 989 623 q 966 625 973 625 l 161 625 q 134 612 141 625 q 131 602 132 608 l 130 597 l 130 370 m 888 240 l 130 240 l 130 0 l 0 0 l 0 594 q 56 719 0 674 q 161 755 102 755 l 966 755 q 1134 697 1061 755 q 1224 498 1224 626 q 1166 330 1224 404 q 1055 253 1121 274 l 1177 123 l 1222 76 l 1128 -14 l 1083 33 l 927 198 l 888 240 "},"s":{"ha":1256,"x_min":-20,"x_max":1175,"o":"m 1154 755 l 1154 625 l 201 625 q 176 622 188 625 q 145 610 159 618 q 110 534 110 587 q 113 509 110 521 q 125 478 117 491 q 201 443 149 443 l 954 443 q 1097 393 1035 443 q 1175 221 1175 332 q 1125 77 1175 140 q 954 0 1064 0 l 0 0 l 0 130 l 954 130 q 1029 165 1006 130 q 1042 196 1038 178 q 1044 221 1044 208 q 1009 297 1044 274 q 979 309 996 305 q 954 313 966 312 l 201 313 q 29 390 91 313 q -20 534 -20 452 q 57 705 -20 644 q 201 755 120 755 l 1154 755 "},"t":{"ha":1482,"x_min":0,"x_max":1380,"o":"m 625 0 l 625 625 l 0 625 l 0 755 l 1380 755 l 1380 625 l 755 625 l 755 0 l 625 0 "},"u":{"ha":1308,"x_min":0,"x_max":1206,"o":"m 130 755 l 130 204 q 152 152 130 174 q 204 130 174 130 l 1002 130 q 1055 152 1033 130 q 1076 204 1076 174 l 1076 755 l 1206 755 l 1206 204 q 1147 60 1206 119 q 1002 0 1087 0 l 204 0 q 60 60 119 0 q 0 204 0 119 l 0 755 l 130 755 "},"v":{"ha":1692,"x_min":0,"x_max":1590,"o":"m 795 146 l 1455 732 l 1503 775 l 1590 678 l 1541 635 l 838 9 q 795 -7 820 -7 q 751 9 770 -7 l 49 635 l 0 678 l 87 775 l 135 732 l 795 146 "},"w":{"ha":1360,"x_min":0,"x_max":1259,"o":"m 694 760 l 694 130 l 1055 130 q 1107 152 1085 130 q 1128 204 1128 174 l 1128 760 l 1259 760 l 1259 204 q 1199 60 1259 119 q 1055 0 1139 0 l 204 0 q 60 60 119 0 q 0 204 0 119 l 0 760 l 130 760 l 130 204 q 152 152 130 174 q 204 130 174 130 l 564 130 l 564 760 l 694 760 "},"x":{"ha":1449,"x_min":0,"x_max":1347,"o":"m 1289 630 l 815 379 l 1289 130 l 1347 99 l 1288 -20 l 1230 10 l 673 304 l 117 10 l 60 -20 l 0 99 l 58 130 l 532 379 l 58 630 l 0 660 l 60 779 l 117 748 l 673 454 l 1230 748 l 1288 779 l 1347 660 l 1289 630 "},"y":{"ha":1308,"x_min":0,"x_max":1206,"o":"m 669 162 l 1002 162 q 1147 222 1087 162 q 1206 366 1206 281 l 1206 755 l 1076 755 l 1076 366 q 1055 314 1076 336 q 1002 292 1033 292 l 204 292 q 152 314 174 292 q 130 366 130 336 l 130 755 l 0 755 l 0 366 q 60 222 0 281 q 204 162 119 162 l 539 162 l 539 0 l 669 0 l 669 162 "},"z":{"ha":1361,"x_min":0,"x_max":1259,"o":"m 319 130 l 1221 130 l 1221 0 l 68 0 q 28 14 46 0 q 5 49 11 27 q 9 91 0 71 q 37 122 18 111 l 941 625 l 33 625 l 33 755 l 1190 755 q 1230 741 1213 755 q 1253 707 1248 728 q 1251 665 1259 685 q 1222 633 1242 644 l 319 130 "},"{":{"ha":337,"x_min":0,"x_max":235,"o":"m 0 311 l 0 441 l 5 441 q 13 442 9 442 q 30 448 23 444 q 52 488 51 458 l 52 710 q 116 846 52 798 q 235 885 168 885 l 235 755 q 220 753 227 755 q 203 748 210 752 q 182 710 182 736 l 182 487 q 144 376 182 425 q 182 267 182 328 l 182 45 q 235 -1 182 1 l 235 -1 l 235 -131 q 116 -92 168 -131 q 52 45 52 -43 l 52 265 q 30 306 51 295 q 13 311 23 309 q 5 311 9 311 l 0 311 "},"|":{"ha":232,"x_min":0,"x_max":130,"o":"m 0 -146 l 0 897 l 130 897 l 130 -146 l 0 -146 "},"}":{"ha":337,"x_min":0,"x_max":235,"o":"m 235 441 l 235 311 l 230 311 q 222 311 226 311 q 205 306 212 309 q 183 265 184 295 l 183 45 q 119 -92 183 -43 q 1 -131 68 -131 l 1 -1 l 0 -1 q 53 45 53 1 l 53 267 q 92 376 53 328 q 53 487 53 425 l 53 710 q 33 748 53 736 q 16 753 26 752 q 1 755 9 755 l 1 885 q 119 846 68 885 q 183 710 183 798 l 183 488 q 205 448 184 458 q 222 442 212 444 q 230 441 226 442 l 235 441 "},"~":{"ha":781,"x_min":0,"x_max":679,"o":"m 130 414 l 0 414 q 32 525 0 478 q 116 587 63 572 q 217 589 163 601 q 262 576 238 585 l 283 568 l 303 560 l 304 559 l 312 556 l 318 553 l 325 551 l 338 545 q 370 533 355 538 q 438 513 408 519 q 541 532 519 494 q 547 547 544 537 q 549 570 549 559 l 679 570 q 678 552 679 562 q 675 526 677 539 q 653 466 669 492 q 457 378 595 366 q 348 403 408 383 q 300 420 326 410 q 280 429 291 424 l 271 433 l 262 436 q 254 439 254 439 l 253 439 q 153 463 180 470 q 136 445 142 459 q 130 414 130 431 "},"¡":{"ha":233,"x_min":0,"x_max":131,"o":"m 131 551 l 131 0 l 1 0 l 1 551 l 131 551 m 130 754 l 130 624 l 0 624 l 0 754 l 130 754 "},"¢":{"ha":1339,"x_min":0,"x_max":1237,"o":"m 1237 0 l 684 0 l 684 -73 l 553 -73 l 553 0 l 204 0 q 60 60 119 0 q 0 204 0 119 l 0 551 q 60 695 0 635 q 204 755 119 755 l 553 755 l 553 831 l 684 831 l 684 755 l 1237 755 l 1237 625 l 204 625 q 152 604 174 625 q 130 551 130 582 l 130 204 q 152 152 130 174 q 204 130 174 130 l 1237 130 l 1237 0 "},"£":{"ha":1376,"x_min":0,"x_max":1274,"o":"m 0 442 l 68 442 l 68 627 q 127 771 68 711 q 272 831 187 831 l 1070 831 q 1215 771 1155 831 q 1274 627 1274 711 l 1274 488 l 1144 488 l 1144 627 q 1122 679 1144 657 q 1070 701 1101 701 l 272 701 q 220 679 241 701 q 198 627 198 657 l 198 442 l 458 442 l 458 312 l 198 312 l 198 130 l 1274 130 l 1274 0 l 68 0 l 68 312 l 0 312 l 0 442 "},"¤":{"ha":585,"x_min":0,"x_max":483,"o":"m 368 898 q 241 939 313 939 q 115 898 170 939 l 64 948 l 0 884 l 55 829 q 30 728 30 783 l 30 686 q 55 585 30 630 l 0 530 l 64 465 l 115 515 q 241 474 170 474 q 368 515 313 474 l 418 465 l 483 530 l 428 585 q 453 686 453 630 l 453 728 q 428 829 453 783 l 483 884 l 418 948 l 368 898 m 358 654 q 328 603 350 625 q 301 583 315 591 q 241 567 275 567 q 182 583 208 567 q 156 603 168 591 q 125 654 133 625 q 120 688 120 670 l 120 724 q 125 759 120 743 q 156 810 133 788 q 182 831 168 823 q 241 846 208 846 q 301 831 275 846 q 328 810 315 823 q 358 759 350 788 q 363 724 363 743 l 363 688 q 358 654 363 670 "},"¥":{"ha":102,"x_min":0,"x_max":0,"o":""},"¦":{"ha":232,"x_min":0,"x_max":130,"o":"m 0 320 l 130 320 l 130 -146 l 0 -146 l 0 320 m 130 431 l 0 431 l 0 897 l 130 897 l 130 431 "},"§":{"ha":102,"x_min":0,"x_max":0,"o":""},"¨":{"ha":576,"x_min":0,"x_max":475,"o":"m 0 830 l 0 960 l 130 960 l 130 830 l 0 830 m 345 830 l 345 960 l 475 960 l 475 830 l 345 830 "},"©":{"ha":102,"x_min":0,"x_max":0,"o":""},"ª":{"ha":102,"x_min":0,"x_max":0,"o":""},"«":{"ha":102,"x_min":0,"x_max":0,"o":""},"¬":{"ha":102,"x_min":0,"x_max":0,"o":""},"®":{"ha":102,"x_min":0,"x_max":0,"o":""},"¯":{"ha":524,"x_min":0,"x_max":422,"o":"m 422 830 l 0 830 l 0 960 l 422 960 l 422 830 "},"°":{"ha":102,"x_min":0,"x_max":0,"o":""},"±":{"ha":102,"x_min":0,"x_max":0,"o":""},"²":{"ha":102,"x_min":0,"x_max":0,"o":""},"³":{"ha":102,"x_min":0,"x_max":0,"o":""},"´":{"ha":415,"x_min":0,"x_max":313,"o":"m 90 831 l 0 926 l 224 1138 l 313 1043 l 90 831 "},"µ":{"ha":102,"x_min":0,"x_max":0,"o":""},"¶":{"ha":102,"x_min":0,"x_max":0,"o":""},"·":{"ha":102,"x_min":0,"x_max":0,"o":""},"∙":{"ha":102,"x_min":0,"x_max":0,"o":""},"¸":{"ha":390,"x_min":0,"x_max":288,"o":"m 160 -58 q 228 -96 199 -70 q 269 -150 254 -118 q 288 -245 288 -191 l 288 -250 q 288 -260 288 -254 q 281 -289 286 -274 q 234 -367 268 -334 q 26 -437 163 -437 l 26 -307 q 138 -279 104 -307 q 155 -258 149 -269 q 157 -249 157 -253 l 158 -245 l 159 -244 l 158 -245 q 142 -193 158 -208 q 108 -178 130 -182 q 92 -176 100 -177 l 81 -176 q 22 -153 45 -180 q 12 -92 0 -125 l 75 100 l 199 58 l 160 -58 "},"¹":{"ha":102,"x_min":0,"x_max":0,"o":""},"º":{"ha":102,"x_min":0,"x_max":0,"o":""},"»":{"ha":102,"x_min":0,"x_max":0,"o":""},"¼":{"ha":102,"x_min":0,"x_max":0,"o":""},"½":{"ha":102,"x_min":0,"x_max":0,"o":""},"¾":{"ha":102,"x_min":0,"x_max":0,"o":""},"¿":{"ha":1191,"x_min":0,"x_max":1089,"o":"m 1089 130 l 1089 0 l 221 0 q 77 50 140 0 q 0 221 0 111 q 50 366 0 302 q 221 443 111 443 l 576 443 q 603 446 590 443 q 633 458 620 450 q 669 534 669 481 l 669 551 l 799 551 l 799 534 q 722 362 799 423 q 577 313 659 313 l 221 313 q 146 277 169 313 q 134 247 137 264 q 130 221 130 235 q 165 146 130 169 q 196 134 178 137 q 221 130 208 130 l 1089 130 m 799 755 l 799 625 l 669 625 l 669 755 l 799 755 "},"À":{"ha":1308,"x_min":0,"x_max":1206,"o":"m 1076 230 l 130 230 l 130 0 l 0 0 l 0 551 q 60 695 0 635 q 204 755 119 755 l 1002 755 q 1147 695 1087 755 q 1206 551 1206 635 l 1206 0 l 1076 0 l 1076 230 m 130 360 l 1076 360 l 1076 551 q 1055 603 1076 581 q 1002 625 1033 625 l 204 625 q 152 603 174 625 q 130 551 130 581 l 130 360 m 707 924 l 618 829 l 394 1042 l 484 1137 l 707 924 "},"Á":{"ha":1308,"x_min":0,"x_max":1206,"o":"m 1076 230 l 130 230 l 130 0 l 0 0 l 0 551 q 60 695 0 635 q 204 755 119 755 l 1002 755 q 1147 695 1087 755 q 1206 551 1206 635 l 1206 0 l 1076 0 l 1076 230 m 130 360 l 1076 360 l 1076 551 q 1055 603 1076 581 q 1002 625 1033 625 l 204 625 q 152 603 174 625 q 130 551 130 581 l 130 360 m 588 829 l 498 924 l 722 1137 l 812 1042 l 588 829 "},"Â":{"ha":1308,"x_min":0,"x_max":1206,"o":"m 1076 230 l 130 230 l 130 0 l 0 0 l 0 551 q 60 695 0 635 q 204 755 119 755 l 1002 755 q 1147 695 1087 755 q 1206 551 1206 635 l 1206 0 l 1076 0 l 1076 230 m 130 360 l 1076 360 l 1076 551 q 1055 603 1076 581 q 1002 625 1033 625 l 204 625 q 152 603 174 625 q 130 551 130 581 l 130 360 m 844 829 l 603 968 l 362 829 l 298 943 l 571 1099 q 635 1099 604 1118 l 909 943 l 844 829 "},"Ã":{"ha":1308,"x_min":0,"x_max":1206,"o":"m 1076 230 l 130 230 l 130 0 l 0 0 l 0 551 q 60 695 0 635 q 204 755 119 755 l 1002 755 q 1147 695 1087 755 q 1206 551 1206 635 l 1206 0 l 1076 0 l 1076 230 m 130 360 l 1076 360 l 1076 551 q 1055 603 1076 581 q 1002 625 1033 625 l 204 625 q 152 603 174 625 q 130 551 130 581 l 130 360 m 394 867 l 264 867 q 295 978 264 931 q 380 1040 327 1025 q 481 1042 427 1054 q 526 1029 502 1038 l 547 1021 l 567 1013 l 568 1013 l 576 1009 l 582 1006 l 589 1004 l 602 998 q 633 986 619 991 q 701 966 672 972 q 804 985 783 947 q 810 1000 808 990 q 812 1023 812 1012 l 943 1023 q 942 1005 943 1015 q 939 979 941 992 q 917 919 932 945 q 721 831 858 819 q 612 856 671 836 q 564 873 589 863 q 544 882 555 877 l 534 886 l 526 889 q 518 892 518 892 l 517 892 q 416 916 444 923 q 399 898 406 912 q 394 867 394 884 "},"Ä":{"ha":1308,"x_min":0,"x_max":1206,"o":"m 1076 230 l 130 230 l 130 0 l 0 0 l 0 551 q 60 695 0 635 q 204 755 119 755 l 1002 755 q 1147 695 1087 755 q 1206 551 1206 635 l 1206 0 l 1076 0 l 1076 230 m 130 360 l 1076 360 l 1076 551 q 1055 603 1076 581 q 1002 625 1033 625 l 204 625 q 152 603 174 625 q 130 551 130 581 l 130 360 m 366 831 l 366 961 l 496 961 l 496 831 l 366 831 m 711 831 l 711 961 l 841 961 l 841 831 l 711 831 "},"Å":{"ha":1308,"x_min":0,"x_max":1206,"o":"m 1076 230 l 130 230 l 130 0 l 0 0 l 0 551 q 60 695 0 635 q 204 755 119 755 l 1002 755 q 1147 695 1087 755 q 1206 551 1206 635 l 1206 0 l 1076 0 l 1076 230 m 130 360 l 1076 360 l 1076 551 q 1055 603 1076 581 q 1002 625 1033 625 l 204 625 q 152 603 174 625 q 130 551 130 581 l 130 360 m 604 1082 q 514 1045 551 1082 q 477 956 477 1008 q 514 867 477 904 q 604 830 551 830 q 692 867 655 830 q 729 956 729 904 q 692 1045 729 1008 q 604 1082 655 1082 m 604 993 q 629 982 618 993 q 640 956 640 971 q 629 930 640 941 q 604 920 618 920 q 577 930 588 920 q 567 956 567 941 q 577 982 567 971 q 604 993 588 993 "},"Æ":{"ha":2143,"x_min":0,"x_max":2041,"o":"m 130 360 l 941 360 l 941 551 q 919 603 941 581 q 867 625 897 625 l 204 625 q 152 603 174 625 q 130 551 130 581 l 130 360 m 940 1 l 940 230 l 130 230 l 130 0 l 0 0 l 0 551 q 60 695 0 635 q 204 755 119 755 l 867 755 q 1005 701 947 755 q 1144 755 1063 755 l 2041 755 l 2041 625 l 1144 625 q 1092 604 1114 625 q 1071 560 1074 585 l 1071 438 l 2041 438 l 2041 308 l 1071 308 l 1071 130 l 2041 130 l 2041 0 l 940 1 "},"Ç":{"ha":1339,"x_min":0,"x_max":1237,"o":"m 584 -92 l 614 0 l 204 0 q 60 60 119 0 q 0 204 0 119 l 0 551 q 60 695 0 635 q 204 755 119 755 l 1237 755 l 1237 625 l 204 625 q 152 604 174 625 q 130 551 130 582 l 130 204 q 152 152 130 174 q 204 130 174 130 l 1237 130 l 1237 0 l 751 0 l 732 -58 q 800 -96 772 -70 q 841 -150 826 -118 q 861 -245 861 -191 l 861 -250 q 860 -260 861 -254 q 854 -289 858 -274 q 806 -367 840 -334 q 599 -437 736 -437 l 599 -307 q 710 -279 676 -307 q 727 -258 722 -269 q 730 -249 729 -253 l 730 -245 l 731 -244 l 730 -245 q 714 -193 730 -208 q 680 -178 703 -182 q 664 -176 672 -177 l 653 -176 q 595 -153 617 -180 q 584 -92 572 -125 "},"È":{"ha":1339,"x_min":0,"x_max":1237,"o":"m 1237 308 l 130 308 l 130 204 q 152 152 130 174 q 204 130 174 130 l 1237 130 l 1237 0 l 204 0 q 60 60 119 0 q 0 204 0 119 l 0 551 q 60 695 0 635 q 204 755 119 755 l 1237 755 l 1237 625 l 204 625 q 152 604 174 625 q 130 551 130 582 l 130 438 l 1237 438 l 1237 308 m 724 924 l 633 829 l 410 1042 l 499 1137 l 724 924 "},"É":{"ha":1339,"x_min":0,"x_max":1237,"o":"m 1237 308 l 130 308 l 130 204 q 152 152 130 174 q 204 130 174 130 l 1237 130 l 1237 0 l 204 0 q 60 60 119 0 q 0 204 0 119 l 0 551 q 60 695 0 635 q 204 755 119 755 l 1237 755 l 1237 625 l 204 625 q 152 604 174 625 q 130 551 130 582 l 130 438 l 1237 438 l 1237 308 m 604 829 l 514 924 l 738 1137 l 827 1042 l 604 829 "},"Ê":{"ha":1339,"x_min":0,"x_max":1237,"o":"m 1237 308 l 130 308 l 130 204 q 152 152 130 174 q 204 130 174 130 l 1237 130 l 1237 0 l 204 0 q 60 60 119 0 q 0 204 0 119 l 0 551 q 60 695 0 635 q 204 755 119 755 l 1237 755 l 1237 625 l 204 625 q 152 604 174 625 q 130 551 130 582 l 130 438 l 1237 438 l 1237 308 m 859 891 l 618 1029 l 377 891 l 313 1004 l 586 1160 q 650 1160 618 1179 l 924 1004 l 859 891 "},"Ë":{"ha":1339,"x_min":0,"x_max":1237,"o":"m 1237 308 l 130 308 l 130 204 q 152 152 130 174 q 204 130 174 130 l 1237 130 l 1237 0 l 204 0 q 60 60 119 0 q 0 204 0 119 l 0 551 q 60 695 0 635 q 204 755 119 755 l 1237 755 l 1237 625 l 204 625 q 152 604 174 625 q 130 551 130 582 l 130 438 l 1237 438 l 1237 308 m 381 891 l 381 1021 l 511 1021 l 511 891 l 381 891 m 726 891 l 726 1021 l 856 1021 l 856 891 l 726 891 "},"Ì":{"ha":232,"x_min":-172,"x_max":142,"o":"m 0 0 l 0 754 l 130 754 l 130 0 l 0 0 m 142 927 l 52 832 l -172 1044 l -82 1139 l 142 927 "},"Í":{"ha":232,"x_min":0,"x_max":313,"o":"m 0 0 l 0 754 l 130 754 l 130 0 l 0 0 m 90 832 l 0 927 l 224 1139 l 313 1044 l 90 832 "},"Î":{"ha":232,"x_min":-241,"x_max":371,"o":"m 0 0 l 0 754 l 130 754 l 130 0 l 0 0 m 306 830 l 65 968 l -176 830 l -241 943 l 33 1099 q 97 1099 65 1118 l 371 943 l 306 830 "},"Ï":{"ha":232,"x_min":-170,"x_max":304,"o":"m 0 0 l 0 754 l 130 754 l 130 0 l 0 0 m -170 831 l -170 961 l -40 961 l -40 831 l -170 831 m 174 831 l 174 961 l 304 961 l 304 831 l 174 831 "},"Ð":{"ha":1465,"x_min":0,"x_max":1363,"o":"m 0 443 l 61 443 l 61 690 q 80 736 61 717 q 126 755 99 755 l 985 755 q 1253 644 1141 755 q 1363 378 1363 534 q 1253 111 1363 222 q 985 0 1141 0 l 126 0 q 80 19 99 0 q 61 65 61 38 l 61 313 l 0 313 l 0 443 m 191 443 l 422 443 l 422 313 l 191 313 l 191 130 l 985 130 q 1160 203 1088 130 q 1233 378 1233 275 q 1160 553 1233 480 q 985 625 1088 625 l 191 625 l 191 443 "},"Ñ":{"ha":1363,"x_min":0,"x_max":1261,"o":"m 1131 751 l 1261 751 l 1261 58 l 1261 60 q 1259 42 1261 50 q 1236 7 1254 20 q 1196 -7 1219 -7 q 1162 3 1179 -7 l 1164 1 l 130 588 l 130 1 l 0 1 l 0 699 q 32 755 0 736 q 97 755 64 774 l 1131 170 l 1131 751 m 421 867 l 291 867 q 323 978 291 931 q 407 1040 355 1025 q 509 1042 454 1054 q 553 1029 529 1038 l 574 1021 l 595 1013 l 596 1013 l 603 1009 l 610 1007 l 616 1004 l 630 998 q 661 986 647 991 q 729 966 699 972 q 832 985 810 947 q 838 1000 836 990 q 840 1023 840 1012 l 970 1023 q 970 1005 970 1015 q 966 979 968 992 q 945 919 960 945 q 749 831 886 819 q 640 856 699 836 q 592 873 617 863 q 571 882 583 877 l 562 886 l 553 889 q 546 892 546 892 l 545 893 q 444 916 471 924 q 427 898 433 912 q 421 867 421 884 "},"Ò":{"ha":1308,"x_min":0,"x_max":1206,"o":"m 1206 551 l 1206 204 q 1147 60 1206 119 q 1002 0 1087 0 l 204 0 q 60 60 119 0 q 0 204 0 119 l 0 551 q 60 695 0 635 q 204 755 119 755 l 1002 755 q 1147 695 1087 755 q 1206 551 1206 635 m 1076 204 l 1076 551 q 1055 604 1076 582 q 1002 625 1033 625 l 204 625 q 152 604 174 625 q 130 551 130 582 l 130 204 q 152 152 130 174 q 204 130 174 130 l 1002 130 q 1055 152 1033 130 q 1076 204 1076 174 m 708 926 l 618 831 l 395 1044 l 484 1139 l 708 926 "},"Ó":{"ha":1308,"x_min":0,"x_max":1206,"o":"m 1206 551 l 1206 204 q 1147 60 1206 119 q 1002 0 1087 0 l 204 0 q 60 60 119 0 q 0 204 0 119 l 0 551 q 60 695 0 635 q 204 755 119 755 l 1002 755 q 1147 695 1087 755 q 1206 551 1206 635 m 1076 204 l 1076 551 q 1055 604 1076 582 q 1002 625 1033 625 l 204 625 q 152 604 174 625 q 130 551 130 582 l 130 204 q 152 152 130 174 q 204 130 174 130 l 1002 130 q 1055 152 1033 130 q 1076 204 1076 174 m 589 831 l 498 926 l 723 1139 l 812 1044 l 589 831 "},"Ô":{"ha":1308,"x_min":0,"x_max":1206,"o":"m 1206 551 l 1206 204 q 1147 60 1206 119 q 1002 0 1087 0 l 204 0 q 60 60 119 0 q 0 204 0 119 l 0 551 q 60 695 0 635 q 204 755 119 755 l 1002 755 q 1147 695 1087 755 q 1206 551 1206 635 m 1076 204 l 1076 551 q 1055 604 1076 582 q 1002 625 1033 625 l 204 625 q 152 604 174 625 q 130 551 130 582 l 130 204 q 152 152 130 174 q 204 130 174 130 l 1002 130 q 1055 152 1033 130 q 1076 204 1076 174 m 844 831 l 603 969 l 362 831 l 298 944 l 571 1100 q 635 1100 604 1119 l 909 944 l 844 831 "},"Õ":{"ha":1308,"x_min":0,"x_max":1206,"o":"m 1206 551 l 1206 204 q 1147 60 1206 119 q 1002 0 1087 0 l 204 0 q 60 60 119 0 q 0 204 0 119 l 0 551 q 60 695 0 635 q 204 755 119 755 l 1002 755 q 1147 695 1087 755 q 1206 551 1206 635 m 1076 204 l 1076 551 q 1055 604 1076 582 q 1002 625 1033 625 l 204 625 q 152 604 174 625 q 130 551 130 582 l 130 204 q 152 152 130 174 q 204 130 174 130 l 1002 130 q 1055 152 1033 130 q 1076 204 1076 174 m 394 867 l 264 867 q 296 978 264 930 q 380 1040 327 1025 q 481 1042 427 1054 q 526 1029 502 1038 l 547 1021 l 567 1013 l 568 1012 l 576 1009 l 582 1006 l 589 1004 l 603 998 q 634 986 619 991 q 702 965 672 972 q 805 984 783 947 q 810 1000 808 989 q 813 1023 813 1012 l 943 1023 q 942 1005 943 1015 q 939 979 941 991 q 917 918 932 945 q 721 831 859 818 q 612 856 672 836 q 565 873 590 863 q 544 881 555 877 l 534 885 l 526 889 q 518 892 518 892 l 517 892 q 416 915 444 923 q 399 897 406 912 q 394 867 394 884 "},"Ö":{"ha":1308,"x_min":0,"x_max":1206,"o":"m 1206 551 l 1206 204 q 1147 60 1206 119 q 1002 0 1087 0 l 204 0 q 60 60 119 0 q 0 204 0 119 l 0 551 q 60 695 0 635 q 204 755 119 755 l 1002 755 q 1147 695 1087 755 q 1206 551 1206 635 m 1076 204 l 1076 551 q 1055 604 1076 582 q 1002 625 1033 625 l 204 625 q 152 604 174 625 q 130 551 130 582 l 130 204 q 152 152 130 174 q 204 130 174 130 l 1002 130 q 1055 152 1033 130 q 1076 204 1076 174 m 366 831 l 366 961 l 496 961 l 496 831 l 366 831 m 711 831 l 711 961 l 841 961 l 841 831 l 711 831 "},"×":{"ha":102,"x_min":0,"x_max":0,"o":""},"Ø":{"ha":1308,"x_min":0,"x_max":1206,"o":"m 1076 550 l 278 130 l 1002 130 q 1055 152 1033 130 q 1076 204 1076 174 l 1076 550 m 131 199 l 940 625 l 204 625 q 152 604 174 625 q 130 551 130 582 l 131 199 m 1206 551 l 1206 204 q 1147 60 1206 119 q 1002 0 1087 0 l 204 0 q 60 60 119 0 q 0 204 0 119 l 0 551 q 60 695 0 635 q 204 755 119 755 l 1002 755 q 1147 695 1087 755 q 1206 551 1206 635 "},"Ù":{"ha":1308,"x_min":0,"x_max":1206,"o":"m 130 755 l 130 204 q 152 152 130 174 q 204 130 174 130 l 1002 130 q 1055 152 1033 130 q 1076 204 1076 174 l 1076 755 l 1206 755 l 1206 204 q 1147 60 1206 119 q 1002 0 1087 0 l 204 0 q 60 60 119 0 q 0 204 0 119 l 0 755 l 130 755 m 707 924 l 618 829 l 394 1042 l 484 1137 l 707 924 "},"Ú":{"ha":1308,"x_min":0,"x_max":1206,"o":"m 130 755 l 130 204 q 152 152 130 174 q 204 130 174 130 l 1002 130 q 1055 152 1033 130 q 1076 204 1076 174 l 1076 755 l 1206 755 l 1206 204 q 1147 60 1206 119 q 1002 0 1087 0 l 204 0 q 60 60 119 0 q 0 204 0 119 l 0 755 l 130 755 m 588 829 l 498 924 l 723 1137 l 812 1042 l 588 829 "},"Û":{"ha":1308,"x_min":0,"x_max":1206,"o":"m 130 755 l 130 204 q 152 152 130 174 q 204 130 174 130 l 1002 130 q 1055 152 1033 130 q 1076 204 1076 174 l 1076 755 l 1206 755 l 1206 204 q 1147 60 1206 119 q 1002 0 1087 0 l 204 0 q 60 60 119 0 q 0 204 0 119 l 0 755 l 130 755 m 844 831 l 603 969 l 361 831 l 297 944 l 570 1100 q 635 1100 603 1119 l 909 944 l 844 831 "},"Ü":{"ha":1308,"x_min":0,"x_max":1206,"o":"m 130 755 l 130 204 q 152 152 130 174 q 204 130 174 130 l 1002 130 q 1055 152 1033 130 q 1076 204 1076 174 l 1076 755 l 1206 755 l 1206 204 q 1147 60 1206 119 q 1002 0 1087 0 l 204 0 q 60 60 119 0 q 0 204 0 119 l 0 755 l 130 755 m 366 831 l 366 962 l 496 962 l 496 831 l 366 831 m 711 831 l 711 962 l 841 962 l 841 831 l 711 831 "},"Ý":{"ha":1685,"x_min":0,"x_max":1584,"o":"m 726 0 l 726 262 l 0 665 l 63 779 l 791 374 l 1520 779 l 1584 665 l 857 261 l 857 0 l 726 0 m 777 829 l 687 924 l 911 1137 l 1000 1042 l 777 829 "},"Þ":{"ha":1308,"x_min":0,"x_max":1206,"o":"m 130 754 l 130 673 l 1002 673 q 1147 614 1087 673 q 1206 469 1206 554 l 1206 283 q 1147 139 1206 199 q 1002 79 1087 79 l 130 79 l 130 1 l 0 1 l 0 754 l 130 754 m 130 543 l 130 210 l 1002 210 q 1055 231 1033 210 q 1076 283 1076 253 l 1076 469 q 1055 522 1076 500 q 1002 543 1033 543 l 130 543 "},"ß":{"ha":1308,"x_min":0,"x_max":1206,"o":"m 204 0 l 204 130 l 1002 130 q 1055 152 1033 130 q 1076 204 1076 174 l 1076 243 q 1055 295 1076 273 q 1002 317 1033 317 l 768 317 q 707 358 724 317 q 724 429 691 399 l 1062 746 q 1046 675 1030 716 q 1107 633 1063 633 l 204 633 q 152 612 174 633 q 130 560 130 591 l 130 3 l 0 3 l 0 560 q 60 704 0 644 q 204 764 119 764 l 1107 764 q 1167 723 1151 764 q 1152 651 1183 682 l 812 334 q 829 406 845 365 q 768 447 812 447 l 1002 447 q 1147 387 1087 447 q 1206 243 1206 328 l 1206 204 q 1147 60 1206 119 q 1002 0 1087 0 l 204 0 "},"à":{"ha":1373,"x_min":-21,"x_max":1272,"o":"m 1141 449 l 183 449 q 39 389 98 449 q -21 245 -21 329 l -21 204 q 39 60 -21 119 q 183 0 98 0 l 1272 0 l 1272 551 q 1212 696 1272 636 q 1076 755 1155 753 l 196 755 q 60 696 117 753 q 0 551 0 636 l 0 549 l 130 549 l 130 551 q 152 604 130 582 q 204 625 174 625 l 1067 625 q 1120 604 1098 625 q 1141 551 1141 582 l 1141 449 m 1141 130 l 183 130 q 131 152 153 130 q 109 204 109 174 l 109 245 q 131 297 109 275 q 183 319 153 319 l 1141 319 l 1141 130 m 730 926 l 640 831 l 416 1043 l 506 1138 l 730 926 "},"á":{"ha":1373,"x_min":-21,"x_max":1272,"o":"m 1141 449 l 183 449 q 39 389 98 449 q -21 245 -21 329 l -21 204 q 39 60 -21 119 q 183 0 98 0 l 1272 0 l 1272 551 q 1212 696 1272 636 q 1076 755 1155 753 l 196 755 q 60 696 117 753 q 0 551 0 636 l 0 549 l 130 549 l 130 551 q 152 604 130 582 q 204 625 174 625 l 1067 625 q 1120 604 1098 625 q 1141 551 1141 582 l 1141 449 m 1141 130 l 183 130 q 131 152 153 130 q 109 204 109 174 l 109 245 q 131 297 109 275 q 183 319 153 319 l 1141 319 l 1141 130 m 610 831 l 521 926 l 745 1138 l 834 1043 l 610 831 "},"â":{"ha":1373,"x_min":-21,"x_max":1272,"o":"m 1141 449 l 183 449 q 39 389 98 449 q -21 245 -21 329 l -21 204 q 39 60 -21 119 q 183 0 98 0 l 1272 0 l 1272 551 q 1212 696 1272 636 q 1076 755 1155 753 l 196 755 q 60 696 117 753 q 0 551 0 636 l 0 549 l 130 549 l 130 551 q 152 604 130 582 q 204 625 174 625 l 1067 625 q 1120 604 1098 625 q 1141 551 1141 582 l 1141 449 m 1141 130 l 183 130 q 131 152 153 130 q 109 204 109 174 l 109 245 q 131 297 109 275 q 183 319 153 319 l 1141 319 l 1141 130 m 866 830 l 625 968 l 384 830 l 319 943 l 593 1099 q 657 1099 625 1118 l 931 943 l 866 830 "},"ã":{"ha":1373,"x_min":-21,"x_max":1272,"o":"m 1141 449 l 183 449 q 39 389 98 449 q -21 245 -21 329 l -21 204 q 39 60 -21 119 q 183 0 98 0 l 1272 0 l 1272 551 q 1212 696 1272 636 q 1076 755 1155 753 l 196 755 q 60 696 117 753 q 0 551 0 636 l 0 549 l 130 549 l 130 551 q 152 604 130 582 q 204 625 174 625 l 1067 625 q 1120 604 1098 625 q 1141 551 1141 582 l 1141 449 m 1141 130 l 183 130 q 131 152 153 130 q 109 204 109 174 l 109 245 q 131 297 109 275 q 183 319 153 319 l 1141 319 l 1141 130 m 416 867 l 286 867 q 317 977 286 930 q 401 1040 349 1024 q 503 1042 449 1053 q 548 1029 524 1038 l 569 1021 l 589 1013 l 590 1012 l 597 1008 l 604 1006 l 610 1003 l 625 998 q 656 985 641 991 q 724 965 694 971 q 827 984 805 947 q 832 1000 829 989 q 835 1023 835 1011 l 965 1023 q 964 1004 965 1014 q 961 979 963 991 q 939 918 954 944 q 743 831 880 818 q 634 855 694 836 q 587 873 612 863 q 566 881 577 876 l 556 885 l 547 888 q 541 892 541 892 l 539 892 q 438 915 465 922 q 422 897 428 911 q 416 867 416 884 "},"ä":{"ha":1373,"x_min":-21,"x_max":1272,"o":"m 1141 449 l 183 449 q 39 389 98 449 q -21 245 -21 329 l -21 204 q 39 60 -21 119 q 183 0 98 0 l 1272 0 l 1272 551 q 1212 696 1272 636 q 1076 755 1155 753 l 196 755 q 60 696 117 753 q 0 551 0 636 l 0 549 l 130 549 l 130 551 q 152 604 130 582 q 204 625 174 625 l 1067 625 q 1120 604 1098 625 q 1141 551 1141 582 l 1141 449 m 1141 130 l 183 130 q 131 152 153 130 q 109 204 109 174 l 109 245 q 131 297 109 275 q 183 319 153 319 l 1141 319 l 1141 130 m 388 830 l 388 960 l 518 960 l 518 830 l 388 830 m 732 830 l 732 960 l 863 960 l 863 830 l 732 830 "},"å":{"ha":1373,"x_min":-21,"x_max":1272,"o":"m 1141 449 l 183 449 q 39 389 98 449 q -21 245 -21 329 l -21 204 q 39 60 -21 119 q 183 0 98 0 l 1272 0 l 1272 551 q 1212 696 1272 636 q 1076 755 1155 753 l 196 755 q 60 696 117 753 q 0 551 0 636 l 0 549 l 130 549 l 130 551 q 152 604 130 582 q 204 625 174 625 l 1067 625 q 1120 604 1098 625 q 1141 551 1141 582 l 1141 449 m 1141 130 l 183 130 q 131 152 153 130 q 109 204 109 174 l 109 245 q 131 297 109 275 q 183 319 153 319 l 1141 319 l 1141 130 m 625 1081 q 536 1044 573 1081 q 500 956 500 1008 q 536 866 500 903 q 625 829 573 829 q 714 866 677 829 q 751 956 751 903 q 714 1044 751 1008 q 625 1081 677 1081 m 625 992 q 651 981 640 992 q 662 956 662 970 q 651 929 662 940 q 625 919 640 919 q 600 929 610 919 q 589 956 589 940 q 600 981 589 970 q 625 992 610 992 "},"æ":{"ha":2219,"x_min":-21,"x_max":2117,"o":"m 945 130 l 183 130 q 131 152 153 130 q 109 204 109 174 l 109 245 q 131 297 109 275 q 183 319 153 319 l 945 319 l 945 130 m 1152 625 l 1913 625 q 1965 604 1944 625 q 1987 551 1987 582 l 1987 438 l 1078 438 l 1078 551 q 1099 604 1078 582 q 1152 625 1121 625 m 1075 14 q 1143 0 1107 1 l 1921 0 q 2058 60 2001 3 q 2117 204 2117 119 l 2117 206 l 1987 206 l 1987 204 q 1965 152 1987 174 q 1913 130 1944 130 l 1152 130 q 1099 152 1121 130 q 1078 204 1078 174 l 1078 308 l 2117 308 l 2117 551 q 2058 695 2117 635 q 1921 755 2001 753 l 1143 755 q 1011 699 1067 753 q 879 755 956 753 l 196 755 q 60 696 117 753 q 0 551 0 636 l 0 549 l 130 549 l 130 551 q 152 604 130 582 q 204 625 174 625 l 871 625 q 923 604 901 625 q 945 551 945 582 l 945 449 l 183 449 q 39 389 98 449 q -21 245 -21 329 l -21 204 q 39 60 -21 119 q 183 0 98 0 l 1075 0 l 1075 14 "},"ç":{"ha":1339,"x_min":0,"x_max":1237,"o":"m 584 -92 l 614 0 l 204 0 q 60 60 119 0 q 0 204 0 119 l 0 551 q 60 695 0 635 q 204 755 119 755 l 1237 755 l 1237 625 l 204 625 q 152 604 174 625 q 130 551 130 582 l 130 204 q 152 152 130 174 q 204 130 174 130 l 1237 130 l 1237 0 l 751 0 l 732 -58 q 800 -96 772 -70 q 841 -150 826 -118 q 861 -245 861 -191 l 861 -250 q 860 -260 861 -254 q 854 -289 858 -274 q 806 -367 840 -334 q 599 -437 736 -437 l 599 -307 q 710 -279 676 -307 q 727 -258 722 -269 q 730 -249 729 -253 l 730 -245 l 731 -244 l 730 -245 q 714 -193 730 -208 q 680 -178 703 -182 q 664 -176 672 -177 l 653 -176 q 595 -153 617 -180 q 584 -92 572 -125 "},"è":{"ha":1373,"x_min":0,"x_max":1272,"o":"m 1272 308 l 130 308 l 130 204 q 152 152 130 174 q 204 130 174 130 l 1067 130 q 1120 152 1098 130 q 1141 204 1141 174 l 1141 206 l 1272 206 l 1272 204 q 1212 60 1272 119 q 1076 0 1155 3 l 196 0 q 60 60 117 3 q 0 204 0 119 l 0 551 q 60 695 0 635 q 196 755 117 753 l 1076 755 q 1212 695 1155 753 q 1272 551 1272 635 l 1272 308 m 1067 625 l 204 625 q 152 604 174 625 q 130 551 130 582 l 130 438 l 1141 438 l 1141 551 q 1120 604 1141 582 q 1067 625 1098 625 m 741 926 l 651 831 l 427 1043 l 516 1138 l 741 926 "},"é":{"ha":1373,"x_min":0,"x_max":1272,"o":"m 1272 308 l 130 308 l 130 204 q 152 152 130 174 q 204 130 174 130 l 1067 130 q 1120 152 1098 130 q 1141 204 1141 174 l 1141 206 l 1272 206 l 1272 204 q 1212 60 1272 119 q 1076 0 1155 3 l 196 0 q 60 60 117 3 q 0 204 0 119 l 0 551 q 60 695 0 635 q 196 755 117 753 l 1076 755 q 1212 695 1155 753 q 1272 551 1272 635 l 1272 308 m 1067 625 l 204 625 q 152 604 174 625 q 130 551 130 582 l 130 438 l 1141 438 l 1141 551 q 1120 604 1141 582 q 1067 625 1098 625 m 621 831 l 531 926 l 755 1138 l 845 1043 l 621 831 "},"ê":{"ha":1373,"x_min":0,"x_max":1272,"o":"m 1272 308 l 130 308 l 130 204 q 152 152 130 174 q 204 130 174 130 l 1067 130 q 1120 152 1098 130 q 1141 204 1141 174 l 1141 206 l 1272 206 l 1272 204 q 1212 60 1272 119 q 1076 0 1155 3 l 196 0 q 60 60 117 3 q 0 204 0 119 l 0 551 q 60 695 0 635 q 196 755 117 753 l 1076 755 q 1212 695 1155 753 q 1272 551 1272 635 l 1272 308 m 1067 625 l 204 625 q 152 604 174 625 q 130 551 130 582 l 130 438 l 1141 438 l 1141 551 q 1120 604 1141 582 q 1067 625 1098 625 m 877 830 l 635 968 l 395 830 l 330 943 l 604 1099 q 668 1099 636 1118 l 942 943 l 877 830 "},"ë":{"ha":1373,"x_min":0,"x_max":1272,"o":"m 1272 308 l 130 308 l 130 204 q 152 152 130 174 q 204 130 174 130 l 1067 130 q 1120 152 1098 130 q 1141 204 1141 174 l 1141 206 l 1272 206 l 1272 204 q 1212 60 1272 119 q 1076 0 1155 3 l 196 0 q 60 60 117 3 q 0 204 0 119 l 0 551 q 60 695 0 635 q 196 755 117 753 l 1076 755 q 1212 695 1155 753 q 1272 551 1272 635 l 1272 308 m 1067 625 l 204 625 q 152 604 174 625 q 130 551 130 582 l 130 438 l 1141 438 l 1141 551 q 1120 604 1141 582 q 1067 625 1098 625 m 399 830 l 399 960 l 529 960 l 529 830 l 399 830 m 743 830 l 743 960 l 873 960 l 873 830 l 743 830 "},"ì":{"ha":232,"x_min":-172,"x_max":142,"o":"m 0 0 l 0 754 l 130 754 l 130 0 l 0 0 m 142 927 l 52 832 l -172 1044 l -82 1139 l 142 927 "},"í":{"ha":232,"x_min":0,"x_max":313,"o":"m 0 0 l 0 754 l 130 754 l 130 0 l 0 0 m 90 832 l 0 927 l 224 1139 l 313 1044 l 90 832 "},"î":{"ha":232,"x_min":-241,"x_max":371,"o":"m 0 0 l 0 754 l 130 754 l 130 0 l 0 0 m 306 830 l 65 968 l -176 830 l -241 943 l 33 1099 q 97 1099 65 1118 l 371 943 l 306 830 "},"ï":{"ha":232,"x_min":-170,"x_max":304,"o":"m 0 0 l 0 754 l 130 754 l 130 0 l 0 0 m -170 831 l -170 961 l -40 961 l -40 831 l -170 831 m 174 831 l 174 961 l 304 961 l 304 831 l 174 831 "},"ð":{"ha":1465,"x_min":0,"x_max":1363,"o":"m 0 443 l 61 443 l 61 690 q 80 736 61 717 q 126 755 99 755 l 985 755 q 1253 644 1141 755 q 1363 378 1363 534 q 1253 111 1363 222 q 985 0 1141 0 l 126 0 q 80 19 99 0 q 61 65 61 38 l 61 313 l 0 313 l 0 443 m 191 443 l 422 443 l 422 313 l 191 313 l 191 130 l 985 130 q 1160 203 1088 130 q 1233 378 1233 275 q 1160 553 1233 480 q 985 625 1088 625 l 191 625 l 191 443 "},"ñ":{"ha":1308,"x_min":0,"x_max":1206,"o":"m 130 555 l 130 0 l 0 0 l 0 555 q 60 700 0 640 q 204 760 119 760 l 1002 760 q 1147 700 1087 760 q 1206 555 1206 640 l 1206 0 l 1076 0 l 1076 555 q 1055 608 1076 586 q 1002 629 1033 629 l 204 629 q 152 608 174 629 q 130 555 130 586 m 394 867 l 264 867 q 296 977 264 930 q 380 1040 327 1024 q 481 1042 427 1053 q 526 1029 502 1038 l 547 1021 l 567 1013 l 568 1012 l 576 1008 l 582 1006 l 589 1003 l 602 998 q 633 985 619 991 q 702 965 672 971 q 805 984 783 947 q 810 1000 808 989 q 812 1023 812 1011 l 943 1023 q 942 1004 943 1014 q 939 979 941 991 q 917 918 932 944 q 721 831 859 818 q 612 855 672 836 q 564 873 590 863 q 544 881 555 876 l 534 885 l 526 888 q 518 892 518 892 l 517 892 q 416 915 444 922 q 399 897 406 911 q 394 867 394 884 "},"ò":{"ha":1308,"x_min":0,"x_max":1206,"o":"m 1206 551 l 1206 204 q 1147 60 1206 119 q 1002 0 1087 0 l 204 0 q 60 60 119 0 q 0 204 0 119 l 0 551 q 60 695 0 635 q 204 755 119 755 l 1002 755 q 1147 695 1087 755 q 1206 551 1206 635 m 1076 204 l 1076 551 q 1055 604 1076 582 q 1002 625 1033 625 l 204 625 q 152 604 174 625 q 130 551 130 582 l 130 204 q 152 152 130 174 q 204 130 174 130 l 1002 130 q 1055 152 1033 130 q 1076 204 1076 174 m 708 926 l 618 831 l 395 1044 l 484 1139 l 708 926 "},"ó":{"ha":1308,"x_min":0,"x_max":1206,"o":"m 1206 551 l 1206 204 q 1147 60 1206 119 q 1002 0 1087 0 l 204 0 q 60 60 119 0 q 0 204 0 119 l 0 551 q 60 695 0 635 q 204 755 119 755 l 1002 755 q 1147 695 1087 755 q 1206 551 1206 635 m 1076 204 l 1076 551 q 1055 604 1076 582 q 1002 625 1033 625 l 204 625 q 152 604 174 625 q 130 551 130 582 l 130 204 q 152 152 130 174 q 204 130 174 130 l 1002 130 q 1055 152 1033 130 q 1076 204 1076 174 m 589 831 l 498 926 l 723 1139 l 812 1044 l 589 831 "},"ô":{"ha":1308,"x_min":0,"x_max":1206,"o":"m 1206 551 l 1206 204 q 1147 60 1206 119 q 1002 0 1087 0 l 204 0 q 60 60 119 0 q 0 204 0 119 l 0 551 q 60 695 0 635 q 204 755 119 755 l 1002 755 q 1147 695 1087 755 q 1206 551 1206 635 m 1076 204 l 1076 551 q 1055 604 1076 582 q 1002 625 1033 625 l 204 625 q 152 604 174 625 q 130 551 130 582 l 130 204 q 152 152 130 174 q 204 130 174 130 l 1002 130 q 1055 152 1033 130 q 1076 204 1076 174 m 844 831 l 603 969 l 362 831 l 298 944 l 571 1100 q 635 1100 604 1119 l 909 944 l 844 831 "},"õ":{"ha":1308,"x_min":0,"x_max":1206,"o":"m 1206 551 l 1206 204 q 1147 60 1206 119 q 1002 0 1087 0 l 204 0 q 60 60 119 0 q 0 204 0 119 l 0 551 q 60 695 0 635 q 204 755 119 755 l 1002 755 q 1147 695 1087 755 q 1206 551 1206 635 m 1076 204 l 1076 551 q 1055 604 1076 582 q 1002 625 1033 625 l 204 625 q 152 604 174 625 q 130 551 130 582 l 130 204 q 152 152 130 174 q 204 130 174 130 l 1002 130 q 1055 152 1033 130 q 1076 204 1076 174 m 394 867 l 264 867 q 296 978 264 930 q 380 1040 327 1025 q 481 1042 427 1054 q 526 1029 502 1038 l 547 1021 l 567 1013 l 568 1012 l 576 1009 l 582 1006 l 589 1004 l 603 998 q 634 986 619 991 q 702 965 672 972 q 805 984 783 947 q 810 1000 808 989 q 813 1023 813 1012 l 943 1023 q 942 1005 943 1015 q 939 979 941 991 q 917 918 932 945 q 721 831 859 818 q 612 856 672 836 q 565 873 590 863 q 544 881 555 877 l 534 885 l 526 889 q 518 892 518 892 l 517 892 q 416 915 444 923 q 399 897 406 912 q 394 867 394 884 "},"ö":{"ha":1308,"x_min":0,"x_max":1206,"o":"m 1206 551 l 1206 204 q 1147 60 1206 119 q 1002 0 1087 0 l 204 0 q 60 60 119 0 q 0 204 0 119 l 0 551 q 60 695 0 635 q 204 755 119 755 l 1002 755 q 1147 695 1087 755 q 1206 551 1206 635 m 1076 204 l 1076 551 q 1055 604 1076 582 q 1002 625 1033 625 l 204 625 q 152 604 174 625 q 130 551 130 582 l 130 204 q 152 152 130 174 q 204 130 174 130 l 1002 130 q 1055 152 1033 130 q 1076 204 1076 174 m 366 831 l 366 961 l 496 961 l 496 831 l 366 831 m 711 831 l 711 961 l 841 961 l 841 831 l 711 831 "},"÷":{"ha":102,"x_min":0,"x_max":0,"o":""},"ø":{"ha":1308,"x_min":0,"x_max":1206,"o":"m 1076 550 l 277 130 l 1002 130 q 1055 152 1033 130 q 1076 204 1076 174 l 1076 550 m 130 199 l 940 625 l 204 625 q 152 604 174 625 q 130 551 130 582 l 130 199 m 1206 551 l 1206 204 q 1147 60 1206 119 q 1002 0 1087 0 l 204 0 q 60 60 119 0 q 0 204 0 119 l 0 551 q 60 695 0 635 q 204 755 119 755 l 1002 755 q 1147 695 1087 755 q 1206 551 1206 635 "},"ù":{"ha":1308,"x_min":0,"x_max":1206,"o":"m 130 755 l 130 204 q 152 152 130 174 q 204 130 174 130 l 1002 130 q 1055 152 1033 130 q 1076 204 1076 174 l 1076 755 l 1206 755 l 1206 204 q 1147 60 1206 119 q 1002 0 1087 0 l 204 0 q 60 60 119 0 q 0 204 0 119 l 0 755 l 130 755 m 707 924 l 618 829 l 394 1042 l 484 1137 l 707 924 "},"ú":{"ha":1308,"x_min":0,"x_max":1206,"o":"m 130 755 l 130 204 q 152 152 130 174 q 204 130 174 130 l 1002 130 q 1055 152 1033 130 q 1076 204 1076 174 l 1076 755 l 1206 755 l 1206 204 q 1147 60 1206 119 q 1002 0 1087 0 l 204 0 q 60 60 119 0 q 0 204 0 119 l 0 755 l 130 755 m 588 829 l 498 924 l 723 1137 l 812 1042 l 588 829 "},"û":{"ha":1308,"x_min":0,"x_max":1206,"o":"m 130 755 l 130 204 q 152 152 130 174 q 204 130 174 130 l 1002 130 q 1055 152 1033 130 q 1076 204 1076 174 l 1076 755 l 1206 755 l 1206 204 q 1147 60 1206 119 q 1002 0 1087 0 l 204 0 q 60 60 119 0 q 0 204 0 119 l 0 755 l 130 755 m 844 831 l 603 969 l 361 831 l 297 944 l 570 1100 q 635 1100 603 1119 l 909 944 l 844 831 "},"ü":{"ha":1308,"x_min":0,"x_max":1206,"o":"m 130 755 l 130 204 q 152 152 130 174 q 204 130 174 130 l 1002 130 q 1055 152 1033 130 q 1076 204 1076 174 l 1076 755 l 1206 755 l 1206 204 q 1147 60 1206 119 q 1002 0 1087 0 l 204 0 q 60 60 119 0 q 0 204 0 119 l 0 755 l 130 755 m 366 831 l 366 962 l 496 962 l 496 831 l 366 831 m 711 831 l 711 962 l 841 962 l 841 831 l 711 831 "},"ý":{"ha":1308,"x_min":0,"x_max":1206,"o":"m 669 162 l 1002 162 q 1147 222 1087 162 q 1206 366 1206 281 l 1206 755 l 1076 755 l 1076 366 q 1055 314 1076 336 q 1002 292 1033 292 l 204 292 q 152 314 174 292 q 130 366 130 336 l 130 755 l 0 755 l 0 366 q 60 222 0 281 q 204 162 119 162 l 539 162 l 539 0 l 669 0 l 669 162 m 589 831 l 499 926 l 723 1138 l 812 1043 l 589 831 "},"þ":{"ha":1308,"x_min":0,"x_max":1206,"o":"m 130 754 l 130 673 l 1002 673 q 1147 614 1087 673 q 1206 469 1206 554 l 1206 283 q 1147 139 1206 199 q 1002 79 1087 79 l 130 79 l 130 1 l 0 1 l 0 754 l 130 754 m 130 543 l 130 210 l 1002 210 q 1055 231 1033 210 q 1076 283 1076 253 l 1076 469 q 1055 522 1076 500 q 1002 543 1033 543 l 130 543 "},"ÿ":{"ha":1308,"x_min":0,"x_max":1206,"o":"m 669 162 l 1002 162 q 1147 222 1087 162 q 1206 366 1206 281 l 1206 755 l 1076 755 l 1076 366 q 1055 314 1076 336 q 1002 292 1033 292 l 204 292 q 152 314 174 292 q 130 366 130 336 l 130 755 l 0 755 l 0 366 q 60 222 0 281 q 204 162 119 162 l 539 162 l 539 0 l 669 0 l 669 162 m 366 830 l 366 960 l 496 960 l 496 830 l 366 830 m 711 830 l 711 960 l 841 960 l 841 830 l 711 830 "},"ı":{"ha":232,"x_min":0,"x_max":130,"o":"m 0 0 l 0 754 l 130 754 l 130 0 l 0 0 "},"ˆ":{"ha":713,"x_min":0,"x_max":612,"o":"m 547 830 l 306 968 l 64 830 l 0 943 l 273 1099 q 338 1099 306 1118 l 612 943 l 547 830 "},"ˇ":{"ha":713,"x_min":0,"x_max":612,"o":"m 306 970 l 547 1109 l 612 996 l 338 840 q 273 840 306 821 l 0 996 l 64 1109 l 306 970 "},"ˉ":{"ha":524,"x_min":0,"x_max":422,"o":"m 422 830 l 0 830 l 0 960 l 422 960 l 422 830 "},"˘":{"ha":669,"x_min":0,"x_max":568,"o":"m 284 830 m 154 1001 q 284 960 193 960 l 291 960 q 309 962 299 961 q 361 972 337 965 q 437 1051 437 995 l 568 1051 q 463 875 568 935 q 370 840 422 852 q 284 830 326 830 q 58 912 134 830 q 13 985 28 944 q 0 1051 0 1019 l 130 1051 l 130 1049 l 131 1044 q 134 1031 132 1038 q 154 1001 140 1015 "},"˙":{"ha":232,"x_min":0,"x_max":130,"o":"m 0 830 l 0 960 l 130 960 l 130 830 l 0 830 "},"˚":{"ha":353,"x_min":0,"x_max":252,"o":"m 125 1081 q 37 1044 74 1081 q 0 956 0 1008 q 37 866 0 903 q 125 829 74 829 q 215 866 178 829 q 252 956 252 903 q 215 1044 252 1008 q 125 1081 178 1081 m 125 992 q 152 981 141 992 q 162 956 162 970 q 152 929 162 940 q 125 919 141 919 q 100 929 111 919 q 89 956 89 940 q 100 981 89 970 q 125 992 111 992 "},"˛":{"ha":323,"x_min":0,"x_max":221,"o":"m 0 1 l 130 1 l 130 -233 q 134 -259 130 -247 q 146 -290 137 -276 q 221 -325 169 -325 l 221 -455 q 50 -378 111 -455 q 0 -234 0 -315 l 0 1 "},"˜":{"ha":781,"x_min":0,"x_max":679,"o":"m 130 867 l 0 867 q 32 977 0 930 q 116 1040 63 1024 q 217 1042 163 1053 q 262 1029 238 1038 l 283 1021 l 303 1013 l 304 1012 l 312 1008 l 318 1006 l 325 1003 l 338 998 q 370 985 355 991 q 438 965 408 971 q 541 984 519 947 q 547 1000 544 989 q 549 1023 549 1011 l 679 1023 q 678 1004 679 1014 q 675 979 677 991 q 653 918 669 944 q 457 831 595 818 q 348 855 408 836 q 300 873 326 863 q 280 881 291 876 l 271 885 l 262 888 q 254 892 254 892 l 253 892 q 153 915 180 922 q 136 897 142 911 q 130 867 130 884 "},"˝":{"ha":595,"x_min":0,"x_max":494,"o":"m 115 831 l 0 892 l 138 1211 l 254 1149 l 115 831 m 355 831 l 240 892 l 378 1211 l 494 1149 l 355 831 "},"–":{"ha":102,"x_min":0,"x_max":0,"o":""},"—":{"ha":102,"x_min":0,"x_max":0,"o":""},"‘":{"ha":232,"x_min":0,"x_max":130,"o":"m 130 757 l 99 644 l 130 644 l 130 514 l 0 514 l 0 644 l 52 757 l 130 757 "},"’":{"ha":232,"x_min":0,"x_max":130,"o":"m 0 514 l 31 627 l 0 627 l 0 757 l 130 757 l 130 627 l 78 514 l 0 514 "},"‚":{"ha":232,"x_min":0,"x_max":130,"o":"m 0 -113 l 31 0 l 0 0 l 0 130 l 130 130 l 130 0 l 78 -113 l 0 -113 "},"“":{"ha":413,"x_min":0,"x_max":311,"o":"m 311 757 l 280 644 l 311 644 l 311 514 l 181 514 l 181 644 l 233 757 l 311 757 m 130 757 l 99 644 l 130 644 l 130 514 l 0 514 l 0 644 l 52 757 l 130 757 "},"”":{"ha":413,"x_min":0,"x_max":311,"o":"m 0 514 l 31 627 l 0 627 l 0 757 l 130 757 l 130 627 l 78 514 l 0 514 m 181 514 l 212 627 l 181 627 l 181 757 l 311 757 l 311 627 l 259 514 l 181 514 "},"„":{"ha":413,"x_min":0,"x_max":311,"o":"m 0 -115 l 31 -2 l 0 -2 l 0 128 l 130 128 l 130 -2 l 78 -115 l 0 -115 m 181 -115 l 212 -2 l 181 -2 l 181 128 l 311 128 l 311 -2 l 259 -115 l 181 -115 "},"†":{"ha":102,"x_min":0,"x_max":0,"o":""},"‡":{"ha":102,"x_min":0,"x_max":0,"o":""},"•":{"ha":102,"x_min":0,"x_max":0,"o":""},"…":{"ha":102,"x_min":0,"x_max":0,"o":""},"‹":{"ha":102,"x_min":0,"x_max":0,"o":""},"›":{"ha":102,"x_min":0,"x_max":0,"o":""},"⁄":{"ha":102,"x_min":0,"x_max":0,"o":""},"∕":{"ha":102,"x_min":0,"x_max":0,"o":""},"₣":{"ha":102,"x_min":0,"x_max":0,"o":""},"₤":{"ha":102,"x_min":0,"x_max":0,"o":""},"₧":{"ha":102,"x_min":0,"x_max":0,"o":""},"€":{"ha":1379,"x_min":0,"x_max":1277,"o":"m 0 545 l 40 545 l 40 551 q 100 695 40 635 q 244 755 159 755 l 1277 755 l 1277 625 l 244 625 q 192 604 214 625 q 170 551 170 582 l 170 545 l 664 545 l 664 414 l 170 414 l 170 341 l 664 341 l 664 211 l 170 211 l 170 204 q 192 152 170 174 q 244 130 214 130 l 1277 130 l 1277 0 l 244 0 q 100 60 159 0 q 40 204 40 119 l 40 211 l 0 211 l 0 341 l 40 341 l 40 414 l 0 414 l 0 545 "},"№":{"ha":102,"x_min":0,"x_max":0,"o":""},"™":{"ha":102,"x_min":0,"x_max":0,"o":""},"∂":{"ha":102,"x_min":0,"x_max":0,"o":""},"∆":{"ha":102,"x_min":0,"x_max":0,"o":""},"∏":{"ha":102,"x_min":0,"x_max":0,"o":""},"∑":{"ha":102,"x_min":0,"x_max":0,"o":""},"−":{"ha":102,"x_min":0,"x_max":0,"o":""},"√":{"ha":102,"x_min":0,"x_max":0,"o":""},"∞":{"ha":102,"x_min":0,"x_max":0,"o":""},"∫":{"ha":102,"x_min":0,"x_max":0,"o":""},"≈":{"ha":102,"x_min":0,"x_max":0,"o":""},"≤":{"ha":102,"x_min":0,"x_max":0,"o":""},"≥":{"ha":102,"x_min":0,"x_max":0,"o":""},"":{"ha":102,"x_min":0,"x_max":0,"o":""},"ﬁ":{"ha":102,"x_min":0,"x_max":0,"o":""},"":{"ha":102,"x_min":0,"x_max":0,"o":""},"ﬂ":{"ha":102,"x_min":0,"x_max":0,"o":""},"Ā":{"ha":1308,"x_min":0,"x_max":1206,"o":"m 1076 230 l 130 230 l 130 0 l 0 0 l 0 551 q 60 695 0 635 q 204 755 119 755 l 1002 755 q 1147 695 1087 755 q 1206 551 1206 635 l 1206 0 l 1076 0 l 1076 230 m 130 360 l 1076 360 l 1076 551 q 1055 603 1076 581 q 1002 625 1033 625 l 204 625 q 152 603 174 625 q 130 551 130 581 l 130 360 m 814 831 l 392 831 l 392 961 l 814 961 l 814 831 "},"Ă":{"ha":1308,"x_min":0,"x_max":1206,"o":"m 1076 230 l 130 230 l 130 0 l 0 0 l 0 551 q 60 695 0 635 q 204 755 119 755 l 1002 755 q 1147 695 1087 755 q 1206 551 1206 635 l 1206 0 l 1076 0 l 1076 230 m 130 360 l 1076 360 l 1076 551 q 1055 603 1076 581 q 1002 625 1033 625 l 204 625 q 152 603 174 625 q 130 551 130 581 l 130 360 m 604 891 m 473 1002 q 604 961 513 961 l 610 961 q 628 962 618 962 q 681 972 656 966 q 757 1052 757 996 l 887 1052 q 782 876 887 936 q 689 841 741 852 q 604 831 645 831 q 377 913 454 831 q 332 985 347 945 q 319 1052 319 1019 l 450 1052 l 450 1050 l 450 1045 q 454 1032 452 1039 q 473 1002 460 1015 "},"Ą":{"ha":1399,"x_min":0,"x_max":1297,"o":"m 130 360 l 1076 360 l 1076 551 q 1055 603 1076 581 q 1002 625 1033 625 l 204 625 q 152 603 174 625 q 130 551 130 581 l 130 360 m 1076 -99 l 1076 230 l 130 230 l 130 0 l 0 0 l 0 551 q 60 695 0 635 q 204 755 119 755 l 1002 755 q 1147 695 1087 755 q 1206 551 1206 635 l 1206 -98 q 1209 -124 1206 -112 q 1222 -155 1213 -141 q 1297 -190 1245 -190 l 1297 -320 q 1126 -243 1187 -320 q 1076 -99 1076 -180 "},"Ć":{"ha":1339,"x_min":0,"x_max":1237,"o":"m 1237 130 l 1237 0 l 204 0 q 60 60 119 0 q 0 204 0 119 l 0 551 q 60 695 0 635 q 204 755 119 755 l 1237 755 l 1237 625 l 204 625 q 152 604 174 625 q 130 551 130 582 l 130 204 q 152 152 130 174 q 204 130 174 130 l 1237 130 m 604 829 l 514 924 l 738 1137 l 827 1042 l 604 829 "},"Ĉ":{"ha":1339,"x_min":0,"x_max":1237,"o":"m 1237 130 l 1237 0 l 204 0 q 60 60 119 0 q 0 204 0 119 l 0 551 q 60 695 0 635 q 204 755 119 755 l 1237 755 l 1237 625 l 204 625 q 152 604 174 625 q 130 551 130 582 l 130 204 q 152 152 130 174 q 204 130 174 130 l 1237 130 m 859 831 l 618 970 l 377 831 l 313 945 l 586 1101 q 650 1101 618 1120 l 924 945 l 859 831 "},"Ċ":{"ha":1339,"x_min":0,"x_max":1237,"o":"m 1237 130 l 1237 0 l 204 0 q 60 60 119 0 q 0 204 0 119 l 0 551 q 60 695 0 635 q 204 755 119 755 l 1237 755 l 1237 625 l 204 625 q 152 604 174 625 q 130 551 130 582 l 130 204 q 152 152 130 174 q 204 130 174 130 l 1237 130 m 553 831 l 553 962 l 684 962 l 684 831 l 553 831 "},"Č":{"ha":1339,"x_min":0,"x_max":1237,"o":"m 1237 130 l 1237 0 l 204 0 q 60 60 119 0 q 0 204 0 119 l 0 551 q 60 695 0 635 q 204 755 119 755 l 1237 755 l 1237 625 l 204 625 q 152 604 174 625 q 130 551 130 582 l 130 204 q 152 152 130 174 q 204 130 174 130 l 1237 130 m 618 972 l 859 1110 l 924 997 l 650 841 q 586 841 618 822 l 313 997 l 377 1110 l 618 972 "},"Ď":{"ha":1404,"x_min":0,"x_max":1302,"o":"m 130 130 l 924 130 q 1099 203 1027 130 q 1172 378 1172 275 q 1099 553 1172 480 q 924 625 1027 625 l 130 625 l 130 130 m 924 0 l 65 0 q 19 19 38 0 q 0 65 0 38 l 0 690 q 19 736 0 717 q 65 755 38 755 l 924 755 q 1192 644 1080 755 q 1302 378 1302 534 q 1192 111 1302 222 q 924 0 1080 0 m 650 972 l 892 1110 l 957 997 l 683 841 q 618 841 651 822 l 345 997 l 410 1110 l 650 972 "},"Đ":{"ha":1465,"x_min":0,"x_max":1363,"o":"m 0 443 l 61 443 l 61 690 q 80 736 61 717 q 126 755 99 755 l 985 755 q 1253 644 1141 755 q 1363 378 1363 534 q 1253 111 1363 222 q 985 0 1141 0 l 126 0 q 80 19 99 0 q 61 65 61 38 l 61 313 l 0 313 l 0 443 m 191 443 l 422 443 l 422 313 l 191 313 l 191 130 l 985 130 q 1160 203 1088 130 q 1233 378 1233 275 q 1160 553 1233 480 q 985 625 1088 625 l 191 625 l 191 443 "},"Ē":{"ha":1339,"x_min":0,"x_max":1237,"o":"m 1237 308 l 130 308 l 130 204 q 152 152 130 174 q 204 130 174 130 l 1237 130 l 1237 0 l 204 0 q 60 60 119 0 q 0 204 0 119 l 0 551 q 60 695 0 635 q 204 755 119 755 l 1237 755 l 1237 625 l 204 625 q 152 604 174 625 q 130 551 130 582 l 130 438 l 1237 438 l 1237 308 m 830 891 l 408 891 l 408 1021 l 830 1021 l 830 891 "},"Ĕ":{"ha":1339,"x_min":0,"x_max":1237,"o":"m 1237 308 l 130 308 l 130 204 q 152 152 130 174 q 204 130 174 130 l 1237 130 l 1237 0 l 204 0 q 60 60 119 0 q 0 204 0 119 l 0 551 q 60 695 0 635 q 204 755 119 755 l 1237 755 l 1237 625 l 204 625 q 152 604 174 625 q 130 551 130 582 l 130 438 l 1237 438 l 1237 308 m 619 891 m 489 1062 q 619 1021 528 1021 l 626 1021 q 644 1023 634 1022 q 696 1033 672 1026 q 772 1112 772 1056 l 903 1112 q 798 936 903 996 q 705 901 757 913 q 619 891 661 891 q 393 973 469 891 q 348 1046 363 1005 q 335 1112 335 1080 l 465 1112 l 465 1110 l 466 1105 q 469 1093 467 1099 q 489 1062 475 1076 "},"Ė":{"ha":1339,"x_min":0,"x_max":1237,"o":"m 1237 308 l 130 308 l 130 204 q 152 152 130 174 q 204 130 174 130 l 1237 130 l 1237 0 l 204 0 q 60 60 119 0 q 0 204 0 119 l 0 551 q 60 695 0 635 q 204 755 119 755 l 1237 755 l 1237 625 l 204 625 q 152 604 174 625 q 130 551 130 582 l 130 438 l 1237 438 l 1237 308 m 553 891 l 553 1021 l 684 1021 l 684 891 l 553 891 "},"Ę":{"ha":1427,"x_min":0,"x_max":1325,"o":"m 1104 -102 l 1104 0 l 204 0 q 60 60 119 0 q 0 204 0 119 l 0 551 q 60 695 0 635 q 204 755 119 755 l 1237 755 l 1237 625 l 204 625 q 152 604 174 625 q 130 551 130 582 l 130 438 l 1237 438 l 1237 308 l 130 308 l 130 204 q 152 152 130 174 q 204 130 174 130 l 1104 130 l 1104 132 l 1237 132 l 1237 130 l 1237 130 l 1237 0 l 1237 0 l 1237 -102 q 1238 -127 1234 -115 q 1250 -158 1241 -145 q 1325 -193 1273 -193 l 1325 -323 q 1154 -246 1215 -323 q 1104 -102 1104 -184 "},"Ě":{"ha":1339,"x_min":0,"x_max":1237,"o":"m 1237 308 l 130 308 l 130 204 q 152 152 130 174 q 204 130 174 130 l 1237 130 l 1237 0 l 204 0 q 60 60 119 0 q 0 204 0 119 l 0 551 q 60 695 0 635 q 204 755 119 755 l 1237 755 l 1237 625 l 204 625 q 152 604 174 625 q 130 551 130 582 l 130 438 l 1237 438 l 1237 308 m 618 970 l 859 1109 l 924 996 l 650 840 q 586 840 618 821 l 313 996 l 377 1109 l 618 970 "},"Ĝ":{"ha":1308,"x_min":0,"x_max":1206,"o":"m 1076 460 l 1206 460 l 1206 204 q 1147 60 1206 119 q 1002 0 1087 0 l 204 0 q 60 60 119 0 q 0 204 0 119 l 0 551 q 60 695 0 635 q 204 755 119 755 l 1206 755 l 1206 625 l 204 625 q 152 604 174 625 q 130 551 130 582 l 130 204 q 152 152 130 174 q 204 130 174 130 l 1002 130 q 1055 152 1033 130 q 1076 204 1076 174 l 1076 460 m 844 830 l 603 968 l 361 830 l 297 943 l 570 1099 q 635 1099 603 1118 l 909 943 l 844 830 "},"Ğ":{"ha":1308,"x_min":0,"x_max":1206,"o":"m 1076 460 l 1206 460 l 1206 204 q 1147 60 1206 119 q 1002 0 1087 0 l 204 0 q 60 60 119 0 q 0 204 0 119 l 0 551 q 60 695 0 635 q 204 755 119 755 l 1206 755 l 1206 625 l 204 625 q 152 604 174 625 q 130 551 130 582 l 130 204 q 152 152 130 174 q 204 130 174 130 l 1002 130 q 1055 152 1033 130 q 1076 204 1076 174 l 1076 460 m 604 831 m 473 1002 q 604 961 513 961 l 610 961 q 628 962 618 962 q 681 972 656 966 q 757 1052 757 996 l 887 1052 q 782 876 887 936 q 689 841 741 852 q 604 831 645 831 q 377 913 454 831 q 332 985 347 945 q 319 1052 319 1019 l 450 1052 l 450 1050 l 450 1045 q 454 1032 452 1039 q 473 1002 460 1015 "},"Ġ":{"ha":1308,"x_min":0,"x_max":1206,"o":"m 1076 460 l 1206 460 l 1206 204 q 1147 60 1206 119 q 1002 0 1087 0 l 204 0 q 60 60 119 0 q 0 204 0 119 l 0 551 q 60 695 0 635 q 204 755 119 755 l 1206 755 l 1206 625 l 204 625 q 152 604 174 625 q 130 551 130 582 l 130 204 q 152 152 130 174 q 204 130 174 130 l 1002 130 q 1055 152 1033 130 q 1076 204 1076 174 l 1076 460 m 538 831 l 538 961 l 668 961 l 668 831 l 538 831 "},"Ģ":{"ha":1308,"x_min":0,"x_max":1206,"o":"m 1076 460 l 1206 460 l 1206 204 q 1147 60 1206 119 q 1002 0 1087 0 l 204 0 q 60 60 119 0 q 0 204 0 119 l 0 551 q 60 695 0 635 q 204 755 119 755 l 1206 755 l 1206 625 l 204 625 q 152 604 174 625 q 130 551 130 582 l 130 204 q 152 152 130 174 q 204 130 174 130 l 1002 130 q 1055 152 1033 130 q 1076 204 1076 174 l 1076 460 m 538 -321 l 570 -209 l 538 -209 l 538 -79 l 669 -79 l 669 -209 l 616 -321 l 538 -321 "},"Ĥ":{"ha":1343,"x_min":0,"x_max":1241,"o":"m 1111 443 l 1111 755 l 1241 755 l 1241 0 l 1111 0 l 1111 313 l 130 313 l 130 0 l 0 0 l 0 755 l 130 755 l 130 443 l 1111 443 m 861 831 l 621 969 l 379 831 l 315 944 l 588 1100 q 652 1100 621 1119 l 926 944 l 861 831 "},"Ħ":{"ha":1343,"x_min":-45,"x_max":1288,"o":"m 1288 530 l 1241 530 l 1241 0 l 1111 0 l 1111 313 l 130 313 l 130 0 l 0 0 l 0 530 l -45 530 l -45 661 l 0 661 l 0 755 l 130 755 l 130 661 l 1111 661 l 1111 755 l 1241 755 l 1241 661 l 1288 661 l 1288 530 m 1111 530 l 130 530 l 130 443 l 1111 443 l 1111 530 "},"Ĩ":{"ha":232,"x_min":-274,"x_max":406,"o":"m 0 0 l 0 754 l 130 754 l 130 0 l 0 0 m -144 867 l -274 867 q -242 978 -274 931 q -158 1040 -211 1025 q -57 1042 -111 1054 q -12 1029 -36 1038 l 9 1021 l 29 1013 l 31 1013 l 38 1009 l 44 1006 l 51 1004 l 65 998 q 96 986 81 991 q 164 966 134 972 q 267 985 245 947 q 273 1000 270 990 q 275 1023 275 1012 l 406 1023 q 405 1005 406 1015 q 401 979 404 992 q 380 919 395 945 q 184 831 321 819 q 75 856 134 836 q 27 873 52 863 q 6 882 18 877 l -3 886 l -12 889 q -19 892 -19 892 l -20 892 q -121 916 -94 923 q -138 898 -132 912 q -144 867 -144 884 "},"Ī":{"ha":232,"x_min":-143,"x_max":279,"o":"m 0 0 l 0 754 l 130 754 l 130 0 l 0 0 m 279 831 l -143 831 l -143 961 l 279 961 l 279 831 "},"Ĭ":{"ha":669,"x_min":0,"x_max":568,"o":"m 218 0 l 218 754 l 349 754 l 349 0 l 218 0 m 283 891 m 154 1002 q 284 961 193 961 l 291 961 q 309 962 299 962 q 361 972 337 966 q 437 1052 437 996 l 568 1052 q 463 876 568 936 q 370 841 422 852 q 284 831 326 831 q 58 913 134 831 q 13 985 28 945 q 0 1052 0 1019 l 130 1052 l 130 1050 l 131 1045 q 134 1032 132 1039 q 154 1002 140 1015 "},"Į":{"ha":238,"x_min":0,"x_max":222,"o":"m 0 -98 l 0 754 l 130 754 l 130 -98 q 134 -123 131 -111 q 146 -154 138 -140 q 222 -189 169 -189 l 222 -319 q 50 -242 111 -319 q 0 -98 0 -179 "},"İ":{"ha":232,"x_min":0,"x_max":130,"o":"m 0 0 l 0 754 l 130 754 l 130 0 l 0 0 m 0 831 l 0 961 l 130 961 l 130 831 l 0 831 "},"Ĳ":{"ha":1337,"x_min":0,"x_max":1235,"o":"m 0 0 l 0 754 l 130 754 l 130 0 l 0 0 m 1105 755 l 1235 755 l 1235 204 q 1175 60 1235 119 q 1031 0 1116 0 l 233 0 l 233 130 l 1031 130 q 1083 152 1062 130 q 1105 204 1105 174 l 1105 755 "},"Ĵ":{"ha":1104,"x_min":0,"x_max":1243,"o":"m 872 755 l 1002 755 l 1002 204 q 943 60 1002 119 q 799 0 883 0 l 0 0 l 0 130 l 799 130 q 850 152 829 130 q 872 204 872 174 l 872 755 m 1178 829 l 937 968 l 696 829 l 631 943 l 905 1099 q 969 1099 937 1118 l 1243 943 l 1178 829 "},"Ķ":{"ha":1264,"x_min":0,"x_max":1162,"o":"m 1161 646 l 732 441 l 1162 87 l 1080 -14 l 603 380 l 130 154 l 130 1 l 0 1 l 0 755 l 130 755 l 130 298 l 1105 764 l 1161 646 m 516 -321 l 547 -209 l 516 -209 l 516 -79 l 646 -79 l 646 -209 l 594 -321 l 516 -321 "},"Ĺ":{"ha":1104,"x_min":0,"x_max":1002,"o":"m 0 755 l 130 755 l 130 204 q 152 152 130 174 q 204 130 174 130 l 1002 130 l 1002 0 l 204 0 q 60 60 119 0 q 0 204 0 119 l 0 755 m 486 832 l 397 927 l 621 1139 l 710 1044 l 486 832 "},"Ļ":{"ha":1104,"x_min":0,"x_max":1002,"o":"m 0 755 l 130 755 l 130 204 q 152 152 130 174 q 204 130 174 130 l 1002 130 l 1002 0 l 204 0 q 60 60 119 0 q 0 204 0 119 l 0 755 m 436 -321 l 467 -209 l 436 -209 l 436 -79 l 566 -79 l 566 -209 l 514 -321 l 436 -321 "},"Ľ":{"ha":1104,"x_min":0,"x_max":1002,"o":"m 0 755 l 130 755 l 130 204 q 152 152 130 174 q 204 130 174 130 l 1002 130 l 1002 0 l 204 0 q 60 60 119 0 q 0 204 0 119 l 0 755 m 610 513 l 641 625 l 610 625 l 610 755 l 740 755 l 740 625 l 688 513 l 610 513 "},"Ŀ":{"ha":1104,"x_min":0,"x_max":1002,"o":"m 0 755 l 130 755 l 130 204 q 152 152 130 174 q 204 130 174 130 l 1002 130 l 1002 0 l 204 0 q 60 60 119 0 q 0 204 0 119 l 0 755 m 553 408 l 553 538 l 684 538 l 684 408 l 553 408 "},"Ł":{"ha":1104,"x_min":-77,"x_max":1002,"o":"m -77 396 l 0 456 l 0 755 l 130 755 l 130 557 l 202 614 l 202 454 l 130 397 l 130 204 q 152 152 130 174 q 204 130 174 130 l 1002 130 l 1002 0 l 204 0 q 60 60 119 0 q 0 204 0 119 l 0 296 l -77 236 l -77 396 "},"Ń":{"ha":1363,"x_min":0,"x_max":1261,"o":"m 1131 751 l 1261 751 l 1261 58 l 1261 60 q 1259 42 1261 50 q 1236 7 1254 20 q 1196 -7 1219 -7 q 1162 3 1179 -7 l 1164 1 l 130 588 l 130 1 l 0 1 l 0 699 q 32 755 0 736 q 97 755 64 774 l 1131 170 l 1131 751 m 616 831 l 526 926 l 750 1138 l 840 1043 l 616 831 "},"Ņ":{"ha":1363,"x_min":0,"x_max":1261,"o":"m 1131 751 l 1261 751 l 1261 58 l 1261 60 q 1259 42 1261 50 q 1236 7 1254 20 q 1196 -7 1219 -7 q 1162 3 1179 -7 l 1164 1 l 130 588 l 130 1 l 0 1 l 0 699 q 32 755 0 736 q 97 755 64 774 l 1131 170 l 1131 751 m 566 -321 l 597 -209 l 566 -209 l 566 -79 l 696 -79 l 696 -209 l 644 -321 l 566 -321 "},"Ň":{"ha":1363,"x_min":0,"x_max":1261,"o":"m 1131 751 l 1261 751 l 1261 58 l 1261 60 q 1259 42 1261 50 q 1236 7 1254 20 q 1196 -7 1219 -7 q 1162 3 1179 -7 l 1164 1 l 130 588 l 130 1 l 0 1 l 0 699 q 32 755 0 736 q 97 755 64 774 l 1131 170 l 1131 751 m 631 971 l 872 1109 l 937 996 l 663 840 q 599 840 631 821 l 326 996 l 390 1109 l 631 971 "},"Ŋ":{"ha":1363,"x_min":0,"x_max":1261,"o":"m 1131 170 l 1131 751 l 1261 751 l 1261 -13 q 1202 -157 1261 -98 q 1058 -217 1142 -217 l 933 -217 l 933 -87 l 1058 -87 q 1109 -65 1089 -87 q 1131 -13 1131 -43 l 1131 20 l 130 588 l 130 1 l 0 1 l 0 699 q 32 755 0 736 q 97 755 64 774 l 1131 170 "},"Ō":{"ha":1308,"x_min":0,"x_max":1206,"o":"m 1206 551 l 1206 204 q 1147 60 1206 119 q 1002 0 1087 0 l 204 0 q 60 60 119 0 q 0 204 0 119 l 0 551 q 60 695 0 635 q 204 755 119 755 l 1002 755 q 1147 695 1087 755 q 1206 551 1206 635 m 1076 204 l 1076 551 q 1055 604 1076 582 q 1002 625 1033 625 l 204 625 q 152 604 174 625 q 130 551 130 582 l 130 204 q 152 152 130 174 q 204 130 174 130 l 1002 130 q 1055 152 1033 130 q 1076 204 1076 174 m 814 891 l 392 891 l 392 1021 l 814 1021 l 814 891 "},"Ŏ":{"ha":1308,"x_min":0,"x_max":1206,"o":"m 1206 551 l 1206 204 q 1147 60 1206 119 q 1002 0 1087 0 l 204 0 q 60 60 119 0 q 0 204 0 119 l 0 551 q 60 695 0 635 q 204 755 119 755 l 1002 755 q 1147 695 1087 755 q 1206 551 1206 635 m 1076 204 l 1076 551 q 1055 604 1076 582 q 1002 625 1033 625 l 204 625 q 152 604 174 625 q 130 551 130 582 l 130 204 q 152 152 130 174 q 204 130 174 130 l 1002 130 q 1055 152 1033 130 q 1076 204 1076 174 m 604 891 m 473 1062 q 604 1021 513 1021 l 610 1021 q 628 1023 618 1022 q 681 1033 656 1026 q 757 1112 757 1056 l 887 1112 q 782 936 887 996 q 689 901 741 913 q 604 891 645 891 q 377 973 454 891 q 332 1046 347 1005 q 319 1112 319 1080 l 450 1112 l 450 1110 l 450 1105 q 454 1093 452 1099 q 473 1062 460 1076 "},"Ő":{"ha":1308,"x_min":0,"x_max":1206,"o":"m 1206 551 l 1206 204 q 1147 60 1206 119 q 1002 0 1087 0 l 204 0 q 60 60 119 0 q 0 204 0 119 l 0 551 q 60 695 0 635 q 204 755 119 755 l 1002 755 q 1147 695 1087 755 q 1206 551 1206 635 m 1076 204 l 1076 551 q 1055 604 1076 582 q 1002 625 1033 625 l 204 625 q 152 604 174 625 q 130 551 130 582 l 130 204 q 152 152 130 174 q 204 130 174 130 l 1002 130 q 1055 152 1033 130 q 1076 204 1076 174 m 471 892 l 356 954 l 495 1272 l 610 1210 l 471 892 m 711 892 l 596 954 l 735 1272 l 850 1210 l 711 892 "},"Œ":{"ha":2143,"x_min":0,"x_max":2041,"o":"m 1006 54 q 867 0 947 0 l 204 0 q 60 60 119 0 q 0 204 0 119 l 0 551 q 60 695 0 635 q 204 755 119 755 l 867 755 q 1006 701 947 755 q 1144 755 1063 755 l 2041 755 l 2041 625 l 1144 625 q 1092 604 1114 625 q 1071 560 1074 585 l 1071 438 l 2041 438 l 2041 308 l 1071 308 l 1071 195 q 1092 152 1074 170 q 1144 130 1114 130 l 2041 130 l 2041 0 l 1144 0 q 1006 54 1063 0 m 941 204 l 941 551 q 919 604 941 582 q 867 625 897 625 l 204 625 q 152 604 174 625 q 130 551 130 582 l 130 204 q 152 152 130 174 q 204 130 174 130 l 867 130 q 919 152 897 130 q 941 204 941 174 "},"Ŕ":{"ha":1326,"x_min":0,"x_max":1224,"o":"m 130 370 l 966 370 q 1074 423 1041 370 q 1090 465 1085 441 q 1093 484 1092 475 q 1094 498 1094 491 q 1041 605 1094 572 q 999 621 1023 616 q 981 624 989 623 q 966 625 973 625 l 161 625 q 134 612 141 625 q 131 602 132 608 l 130 597 l 130 370 m 888 240 l 130 240 l 130 0 l 0 0 l 0 594 q 56 719 0 674 q 161 755 102 755 l 966 755 q 1134 697 1061 755 q 1224 498 1224 626 q 1166 330 1224 404 q 1055 253 1121 274 l 1177 123 l 1222 76 l 1128 -14 l 1083 33 l 927 198 l 888 240 m 594 831 l 505 926 l 729 1138 l 819 1043 l 594 831 "},"Ŗ":{"ha":1326,"x_min":0,"x_max":1224,"o":"m 130 370 l 966 370 q 1074 423 1041 370 q 1090 465 1085 441 q 1093 484 1092 475 q 1094 498 1094 491 q 1041 605 1094 572 q 999 621 1023 616 q 981 624 989 623 q 966 625 973 625 l 161 625 q 134 612 141 625 q 131 602 132 608 l 130 597 l 130 370 m 888 240 l 130 240 l 130 0 l 0 0 l 0 594 q 56 719 0 674 q 161 755 102 755 l 966 755 q 1134 697 1061 755 q 1224 498 1224 626 q 1166 330 1224 404 q 1055 253 1121 274 l 1177 123 l 1222 76 l 1128 -14 l 1083 33 l 927 198 l 888 240 m 547 -321 l 578 -209 l 547 -209 l 547 -79 l 677 -79 l 677 -209 l 625 -321 l 547 -321 "},"Ř":{"ha":1326,"x_min":0,"x_max":1224,"o":"m 130 370 l 966 370 q 1074 423 1041 370 q 1090 465 1085 441 q 1093 484 1092 475 q 1094 498 1094 491 q 1041 605 1094 572 q 999 621 1023 616 q 981 624 989 623 q 966 625 973 625 l 161 625 q 134 612 141 625 q 131 602 132 608 l 130 597 l 130 370 m 888 240 l 130 240 l 130 0 l 0 0 l 0 594 q 56 719 0 674 q 161 755 102 755 l 966 755 q 1134 697 1061 755 q 1224 498 1224 626 q 1166 330 1224 404 q 1055 253 1121 274 l 1177 123 l 1222 76 l 1128 -14 l 1083 33 l 927 198 l 888 240 m 612 972 l 853 1110 l 918 997 l 644 841 q 580 841 612 822 l 307 997 l 371 1110 l 612 972 "},"Ś":{"ha":1256,"x_min":-20,"x_max":1175,"o":"m 562 832 l 473 927 l 696 1139 l 786 1044 l 562 832 m 1154 755 l 1154 625 l 201 625 q 176 622 188 625 q 145 610 159 618 q 110 534 110 587 q 113 509 110 521 q 125 478 117 491 q 201 443 149 443 l 954 443 q 1097 393 1035 443 q 1175 221 1175 332 q 1125 77 1175 140 q 954 0 1064 0 l 0 0 l 0 130 l 954 130 q 1029 165 1006 130 q 1042 196 1038 178 q 1044 221 1044 208 q 1009 297 1044 274 q 979 309 996 305 q 954 313 966 312 l 201 313 q 29 390 91 313 q -20 534 -20 452 q 57 705 -20 644 q 201 755 120 755 l 1154 755 "},"Ŝ":{"ha":1256,"x_min":-20,"x_max":1175,"o":"m 818 831 l 577 970 l 336 831 l 271 945 l 545 1101 q 609 1101 577 1120 l 883 945 l 818 831 m 1154 755 l 1154 625 l 201 625 q 176 622 188 625 q 145 610 159 618 q 110 534 110 587 q 113 509 110 521 q 125 478 117 491 q 201 443 149 443 l 954 443 q 1097 393 1035 443 q 1175 221 1175 332 q 1125 77 1175 140 q 954 0 1064 0 l 0 0 l 0 130 l 954 130 q 1029 165 1006 130 q 1042 196 1038 178 q 1044 221 1044 208 q 1009 297 1044 274 q 979 309 996 305 q 954 313 966 312 l 201 313 q 29 390 91 313 q -20 534 -20 452 q 57 705 -20 644 q 201 755 120 755 l 1154 755 "},"Ş":{"ha":1256,"x_min":-20,"x_max":1175,"o":"m 954 0 l 673 0 l 654 -58 q 722 -96 694 -70 q 763 -150 748 -118 q 783 -245 783 -191 l 783 -250 q 782 -260 783 -254 q 776 -289 780 -274 q 728 -367 762 -334 q 521 -437 658 -437 l 521 -307 q 632 -279 598 -307 q 649 -258 644 -269 q 652 -249 651 -253 l 652 -245 l 653 -244 l 652 -245 q 636 -193 652 -208 q 602 -178 625 -182 q 586 -176 594 -177 l 575 -176 q 517 -153 539 -180 q 506 -92 494 -125 l 536 0 l 0 0 l 0 130 l 954 130 q 1029 165 1006 130 q 1042 196 1038 178 q 1044 221 1044 208 q 1009 297 1044 274 q 979 309 996 305 q 954 313 966 312 l 201 313 q 29 390 91 313 q -20 534 -20 452 q 57 705 -20 644 q 201 755 120 755 l 1154 755 l 1154 625 l 201 625 q 176 622 188 625 q 145 610 159 618 q 110 534 110 587 q 113 509 110 521 q 125 478 117 491 q 201 443 149 443 l 954 443 q 1097 393 1035 443 q 1175 221 1175 332 q 1125 77 1175 140 q 954 0 1064 0 "},"Š":{"ha":1256,"x_min":-20,"x_max":1175,"o":"m 577 970 l 818 1109 l 883 996 l 609 840 q 545 840 577 821 l 271 996 l 336 1109 l 577 970 m 1154 755 l 1154 625 l 201 625 q 176 622 188 625 q 145 610 159 618 q 110 534 110 587 q 113 509 110 521 q 125 478 117 491 q 201 443 149 443 l 954 443 q 1097 393 1035 443 q 1175 221 1175 332 q 1125 77 1175 140 q 954 0 1064 0 l 0 0 l 0 130 l 954 130 q 1029 165 1006 130 q 1042 196 1038 178 q 1044 221 1044 208 q 1009 297 1044 274 q 979 309 996 305 q 954 313 966 312 l 201 313 q 29 390 91 313 q -20 534 -20 452 q 57 705 -20 644 q 201 755 120 755 l 1154 755 "},"Ţ":{"ha":1482,"x_min":0,"x_max":1380,"o":"m 596 -46 q 625 87 626 0 l 625 625 l 0 625 l 0 755 l 1380 755 l 1380 625 l 755 625 l 755 87 q 715 -58 753 0 q 783 -96 754 -70 q 823 -150 808 -118 q 843 -245 843 -191 l 843 -250 q 842 -260 843 -254 q 836 -289 840 -274 q 789 -367 823 -334 q 581 -437 718 -437 l 581 -307 q 692 -279 659 -307 q 709 -258 704 -269 q 712 -249 711 -253 l 713 -245 l 713 -244 l 713 -245 q 696 -193 713 -208 q 663 -178 685 -182 q 646 -176 654 -177 l 635 -176 q 577 -153 600 -180 q 561 -109 555 -125 q 581 -69 566 -92 q 596 -46 596 -46 "},"Ť":{"ha":1482,"x_min":0,"x_max":1380,"o":"m 625 0 l 625 625 l 0 625 l 0 755 l 1380 755 l 1380 625 l 755 625 l 755 0 l 625 0 m 690 970 l 931 1109 l 996 996 l 722 840 q 658 840 690 821 l 385 996 l 449 1109 l 690 970 "},"Ŧ":{"ha":1482,"x_min":0,"x_max":1380,"o":"m 901 313 l 755 313 l 755 0 l 625 0 l 625 313 l 479 313 l 479 443 l 625 443 l 625 625 l 0 625 l 0 755 l 1380 755 l 1380 625 l 755 625 l 755 443 l 901 443 l 901 313 "},"Ũ":{"ha":1308,"x_min":0,"x_max":1206,"o":"m 130 755 l 130 204 q 152 152 130 174 q 204 130 174 130 l 1002 130 q 1055 152 1033 130 q 1076 204 1076 174 l 1076 755 l 1206 755 l 1206 204 q 1147 60 1206 119 q 1002 0 1087 0 l 204 0 q 60 60 119 0 q 0 204 0 119 l 0 755 l 130 755 m 394 867 l 264 867 q 295 978 264 931 q 380 1040 327 1025 q 481 1042 427 1054 q 526 1029 502 1038 l 547 1021 l 567 1013 l 568 1013 l 576 1009 l 582 1006 l 589 1004 l 602 998 q 633 986 619 991 q 701 966 672 972 q 804 985 783 947 q 810 1000 808 990 q 812 1023 812 1012 l 943 1023 q 942 1005 943 1015 q 939 979 941 992 q 917 919 932 945 q 721 831 859 819 q 612 856 672 836 q 564 873 589 863 q 544 882 555 877 l 534 886 l 526 889 q 518 892 518 892 l 517 892 q 416 916 444 923 q 399 898 406 912 q 394 867 394 884 "},"Ū":{"ha":1308,"x_min":0,"x_max":1206,"o":"m 130 755 l 130 204 q 152 152 130 174 q 204 130 174 130 l 1002 130 q 1055 152 1033 130 q 1076 204 1076 174 l 1076 755 l 1206 755 l 1206 204 q 1147 60 1206 119 q 1002 0 1087 0 l 204 0 q 60 60 119 0 q 0 204 0 119 l 0 755 l 130 755 m 814 831 l 392 831 l 392 961 l 814 961 l 814 831 "},"Ŭ":{"ha":1308,"x_min":0,"x_max":1206,"o":"m 130 755 l 130 204 q 152 152 130 174 q 204 130 174 130 l 1002 130 q 1055 152 1033 130 q 1076 204 1076 174 l 1076 755 l 1206 755 l 1206 204 q 1147 60 1206 119 q 1002 0 1087 0 l 204 0 q 60 60 119 0 q 0 204 0 119 l 0 755 l 130 755 m 604 891 m 473 1002 q 604 961 513 961 l 610 961 q 628 962 618 962 q 681 972 656 966 q 757 1052 757 996 l 887 1052 q 782 876 887 936 q 689 841 741 852 q 604 831 645 831 q 377 913 454 831 q 332 985 347 945 q 319 1052 319 1019 l 450 1052 l 450 1050 l 450 1045 q 454 1032 452 1039 q 473 1002 460 1015 "},"Ů":{"ha":1308,"x_min":0,"x_max":1206,"o":"m 130 755 l 130 204 q 152 152 130 174 q 204 130 174 130 l 1002 130 q 1055 152 1033 130 q 1076 204 1076 174 l 1076 755 l 1206 755 l 1206 204 q 1147 60 1206 119 q 1002 0 1087 0 l 204 0 q 60 60 119 0 q 0 204 0 119 l 0 755 l 130 755 m 604 1082 q 514 1045 551 1082 q 477 956 477 1008 q 514 867 477 904 q 604 830 551 830 q 692 867 655 830 q 729 956 729 904 q 692 1045 729 1008 q 604 1082 655 1082 m 604 993 q 629 982 618 993 q 640 956 640 971 q 629 930 640 941 q 604 920 618 920 q 577 930 588 920 q 567 956 567 941 q 577 982 567 971 q 604 993 588 993 "},"Ű":{"ha":1308,"x_min":0,"x_max":1206,"o":"m 130 755 l 130 204 q 152 152 130 174 q 204 130 174 130 l 1002 130 q 1055 152 1033 130 q 1076 204 1076 174 l 1076 755 l 1206 755 l 1206 204 q 1147 60 1206 119 q 1002 0 1087 0 l 204 0 q 60 60 119 0 q 0 204 0 119 l 0 755 l 130 755 m 471 832 l 356 894 l 495 1212 l 610 1150 l 471 832 m 711 832 l 596 894 l 735 1212 l 850 1150 l 711 832 "},"Ų":{"ha":1308,"x_min":0,"x_max":1206,"o":"m 561 -108 l 561 0 l 204 0 q 60 60 119 0 q 0 204 0 119 l 0 755 l 130 755 l 130 204 q 152 152 130 174 q 204 130 174 130 l 1002 130 q 1055 152 1033 130 q 1076 204 1076 174 l 1076 755 l 1206 755 l 1206 204 q 1147 60 1206 119 q 1002 0 1087 0 l 691 0 l 691 -107 q 694 -133 691 -121 q 707 -163 698 -151 q 782 -199 730 -199 l 782 -329 q 610 -252 672 -329 q 561 -108 561 -189 "},"Ŵ":{"ha":1691,"x_min":0,"x_max":1590,"o":"m 1196 642 l 880 267 l 970 159 l 1448 725 l 1490 775 l 1590 691 l 1548 642 l 1021 16 q 970 -7 1001 -7 q 921 16 941 -7 l 795 165 l 669 16 q 619 -7 649 -7 q 569 16 589 -7 l 42 642 l 0 691 l 100 775 l 142 725 l 619 159 l 709 267 l 393 642 l 351 691 l 451 775 l 493 725 l 795 368 l 1097 725 l 1139 775 l 1238 691 l 1196 642 m 1036 830 l 795 968 l 553 830 l 489 943 l 762 1099 q 827 1099 795 1118 l 1101 943 l 1036 830 "},"Ŷ":{"ha":1685,"x_min":0,"x_max":1584,"o":"m 726 0 l 726 262 l 0 665 l 63 779 l 791 374 l 1520 779 l 1584 665 l 857 261 l 857 0 l 726 0 m 1033 829 l 791 968 l 551 829 l 486 943 l 760 1099 q 824 1099 792 1118 l 1098 943 l 1033 829 "},"Ÿ":{"ha":1685,"x_min":0,"x_max":1584,"o":"m 726 0 l 726 262 l 0 665 l 63 779 l 791 374 l 1520 779 l 1584 665 l 857 261 l 857 0 l 726 0 m 555 829 l 555 960 l 685 960 l 685 829 l 555 829 m 899 829 l 899 960 l 1029 960 l 1029 829 l 899 829 "},"Ź":{"ha":1361,"x_min":0,"x_max":1259,"o":"m 319 130 l 1221 130 l 1221 0 l 68 0 q 28 14 46 0 q 5 49 11 27 q 9 91 0 71 q 37 122 18 111 l 941 625 l 33 625 l 33 755 l 1190 755 q 1230 741 1213 755 q 1253 707 1248 728 q 1251 665 1259 685 q 1222 633 1242 644 l 319 130 m 614 832 l 525 927 l 749 1139 l 838 1044 l 614 832 "},"Ż":{"ha":1361,"x_min":0,"x_max":1259,"o":"m 319 130 l 1221 130 l 1221 0 l 68 0 q 28 14 46 0 q 5 49 11 27 q 9 91 0 71 q 37 122 18 111 l 941 625 l 33 625 l 33 755 l 1190 755 q 1230 741 1213 755 q 1253 707 1248 728 q 1251 665 1259 685 q 1222 633 1242 644 l 319 130 m 564 891 l 564 1021 l 694 1021 l 694 891 l 564 891 "},"Ž":{"ha":1361,"x_min":0,"x_max":1259,"o":"m 319 130 l 1221 130 l 1221 0 l 68 0 q 28 14 46 0 q 5 49 11 27 q 9 91 0 71 q 37 122 18 111 l 941 625 l 33 625 l 33 755 l 1190 755 q 1230 741 1213 755 q 1253 707 1248 728 q 1251 665 1259 685 q 1222 633 1242 644 l 319 130 m 629 970 l 870 1109 l 935 996 l 661 840 q 597 840 629 821 l 323 996 l 388 1109 l 629 970 "},"‰":{"ha":1895,"x_min":0,"x_max":1794,"o":"m 969 755 l 863 830 l 271 -2 l 377 -78 l 969 755 m 1243 334 l 1243 142 q 1202 41 1243 83 q 1101 0 1160 0 l 889 0 q 789 41 831 0 q 747 142 747 83 l 747 334 q 789 434 747 393 q 889 476 831 476 l 1101 476 q 1202 434 1160 476 q 1243 334 1243 393 m 1113 142 l 1113 334 q 1101 346 1113 346 l 889 346 q 878 334 878 346 l 878 142 q 889 130 878 130 l 1101 130 q 1113 142 1113 130 m 496 613 l 496 421 q 454 321 496 362 q 354 279 413 279 l 142 279 q 41 321 83 279 q 0 421 0 362 l 0 613 q 41 713 0 672 q 142 755 83 755 l 354 755 q 454 713 413 755 q 496 613 496 672 m 366 421 l 366 613 q 354 625 366 625 l 142 625 q 130 613 130 625 l 130 421 q 142 410 130 410 l 354 410 q 366 421 366 410 m 1794 334 l 1794 142 q 1752 41 1794 83 q 1652 0 1711 0 l 1440 0 q 1339 41 1381 0 q 1298 142 1298 83 l 1298 334 q 1339 434 1298 393 q 1440 476 1381 476 l 1652 476 q 1752 434 1711 476 q 1794 334 1794 393 m 1664 142 l 1664 334 q 1652 346 1664 346 l 1440 346 q 1428 334 1428 346 l 1428 142 q 1440 130 1428 130 l 1652 130 q 1664 142 1664 130 "},"̦":{"ha":232,"x_min":0,"x_max":130,"o":"m 0 -321 l 31 -209 l 0 -209 l 0 -79 l 130 -79 l 130 -209 l 78 -321 l 0 -321 "},"ą":{"ha":1373,"x_min":-21,"x_max":1362,"o":"m 1141 130 l 183 130 q 131 152 153 130 q 109 204 109 174 l 109 245 q 131 297 109 275 q 183 319 153 319 l 1141 319 l 1141 130 m 1141 0 l 1141 -105 q 1191 -249 1141 -186 q 1362 -326 1252 -326 l 1362 -196 q 1287 -161 1310 -196 q 1274 -130 1278 -147 q 1272 -104 1272 -118 l 1272 551 q 1212 696 1272 636 q 1076 755 1155 753 l 196 755 q 60 696 117 753 q 0 551 0 636 l 0 549 l 130 549 l 130 551 q 152 604 130 582 q 204 625 174 625 l 1067 625 q 1120 604 1098 625 q 1141 551 1141 582 l 1141 449 l 183 449 q 39 389 98 449 q -21 245 -21 329 l -21 204 q 39 60 -21 119 q 183 0 98 0 l 1141 0 "},"ć":{"ha":1339,"x_min":0,"x_max":1237,"o":"m 1237 130 l 1237 0 l 204 0 q 60 60 119 0 q 0 204 0 119 l 0 551 q 60 695 0 635 q 204 755 119 755 l 1237 755 l 1237 625 l 204 625 q 152 604 174 625 q 130 551 130 582 l 130 204 q 152 152 130 174 q 204 130 174 130 l 1237 130 m 604 829 l 514 924 l 738 1137 l 827 1042 l 604 829 "},"ę":{"ha":1373,"x_min":0,"x_max":1272,"o":"m 1067 625 l 204 625 q 152 604 174 625 q 130 551 130 582 l 130 438 l 1141 438 l 1141 551 q 1120 604 1141 582 q 1067 625 1098 625 m 623 -109 l 623 0 l 196 0 q 60 60 117 3 q 0 204 0 119 l 0 551 q 60 695 0 635 q 196 755 117 753 l 1076 755 q 1212 695 1155 753 q 1272 551 1272 635 l 1272 308 l 130 308 l 130 204 q 152 152 130 174 q 204 130 174 130 l 1067 130 q 1120 152 1098 130 q 1141 204 1141 174 l 1141 206 l 1272 206 l 1272 204 q 1212 60 1272 119 q 1076 0 1155 3 l 753 0 l 753 -108 q 756 -134 753 -121 q 769 -164 760 -151 q 844 -199 792 -199 l 844 -330 q 673 -252 734 -330 q 623 -109 623 -190 "},"ł":{"ha":1104,"x_min":-77,"x_max":1002,"o":"m -77 396 l 0 456 l 0 755 l 130 755 l 130 557 l 202 614 l 202 454 l 130 397 l 130 204 q 152 152 130 174 q 204 130 174 130 l 1002 130 l 1002 0 l 204 0 q 60 60 119 0 q 0 204 0 119 l 0 296 l -77 236 l -77 396 "},"ń":{"ha":1308,"x_min":0,"x_max":1206,"o":"m 130 555 l 130 0 l 0 0 l 0 555 q 60 700 0 640 q 204 760 119 760 l 1002 760 q 1147 700 1087 760 q 1206 555 1206 640 l 1206 0 l 1076 0 l 1076 555 q 1055 608 1076 586 q 1002 629 1033 629 l 204 629 q 152 608 174 629 q 130 555 130 586 m 589 831 l 499 926 l 723 1138 l 812 1043 l 589 831 "},"ż":{"ha":1361,"x_min":0,"x_max":1259,"o":"m 319 130 l 1221 130 l 1221 0 l 68 0 q 28 14 46 0 q 5 49 11 27 q 9 91 0 71 q 37 122 18 111 l 941 625 l 33 625 l 33 755 l 1190 755 q 1230 741 1213 755 q 1253 707 1248 728 q 1251 665 1259 685 q 1222 633 1242 644 l 319 130 m 564 891 l 564 1021 l 694 1021 l 694 891 l 564 891 "},"ź":{"ha":1361,"x_min":0,"x_max":1259,"o":"m 319 130 l 1221 130 l 1221 0 l 68 0 q 28 14 46 0 q 5 49 11 27 q 9 91 0 71 q 37 122 18 111 l 941 625 l 33 625 l 33 755 l 1190 755 q 1230 741 1213 755 q 1253 707 1248 728 q 1251 665 1259 685 q 1222 633 1242 644 l 319 130 m 614 832 l 525 927 l 749 1139 l 838 1044 l 614 832 "},"ś":{"ha":1256,"x_min":-20,"x_max":1175,"o":"m 562 832 l 473 927 l 696 1139 l 786 1044 l 562 832 m 1154 755 l 1154 625 l 201 625 q 176 622 188 625 q 145 610 159 618 q 110 534 110 587 q 113 509 110 521 q 125 478 117 491 q 201 443 149 443 l 954 443 q 1097 393 1035 443 q 1175 221 1175 332 q 1125 77 1175 140 q 954 0 1064 0 l 0 0 l 0 130 l 954 130 q 1029 165 1006 130 q 1042 196 1038 178 q 1044 221 1044 208 q 1009 297 1044 274 q 979 309 996 305 q 954 313 966 312 l 201 313 q 29 390 91 313 q -20 534 -20 452 q 57 705 -20 644 q 201 755 120 755 l 1154 755 "},"ā":{"ha":1373,"x_min":-21,"x_max":1272,"o":"m 1141 449 l 183 449 q 39 389 98 449 q -21 245 -21 329 l -21 204 q 39 60 -21 119 q 183 0 98 0 l 1272 0 l 1272 551 q 1212 696 1272 636 q 1076 755 1155 753 l 196 755 q 60 696 117 753 q 0 551 0 636 l 0 549 l 130 549 l 130 551 q 152 604 130 582 q 204 625 174 625 l 1067 625 q 1120 604 1098 625 q 1141 551 1141 582 l 1141 449 m 1141 130 l 183 130 q 131 152 153 130 q 109 204 109 174 l 109 245 q 131 297 109 275 q 183 319 153 319 l 1141 319 l 1141 130 m 837 830 l 414 830 l 414 960 l 837 960 l 837 830 "},"ă":{"ha":1373,"x_min":-21,"x_max":1272,"o":"m 1141 449 l 183 449 q 39 389 98 449 q -21 245 -21 329 l -21 204 q 39 60 -21 119 q 183 0 98 0 l 1272 0 l 1272 551 q 1212 696 1272 636 q 1076 755 1155 753 l 196 755 q 60 696 117 753 q 0 551 0 636 l 0 549 l 130 549 l 130 551 q 152 604 130 582 q 204 625 174 625 l 1067 625 q 1120 604 1098 625 q 1141 551 1141 582 l 1141 449 m 1141 130 l 183 130 q 131 152 153 130 q 109 204 109 174 l 109 245 q 131 297 109 275 q 183 319 153 319 l 1141 319 l 1141 130 m 626 830 m 496 1001 q 626 960 535 960 l 633 960 q 650 962 641 961 q 703 972 679 965 q 779 1051 779 995 l 909 1051 q 804 875 909 935 q 711 840 764 852 q 626 830 667 830 q 399 912 476 830 q 355 985 370 944 q 342 1051 342 1019 l 472 1051 l 472 1049 l 473 1044 q 476 1031 474 1038 q 496 1001 482 1015 "},"ĉ":{"ha":1339,"x_min":0,"x_max":1237,"o":"m 1237 130 l 1237 0 l 204 0 q 60 60 119 0 q 0 204 0 119 l 0 551 q 60 695 0 635 q 204 755 119 755 l 1237 755 l 1237 625 l 204 625 q 152 604 174 625 q 130 551 130 582 l 130 204 q 152 152 130 174 q 204 130 174 130 l 1237 130 m 859 831 l 618 970 l 377 831 l 313 945 l 586 1101 q 650 1101 618 1120 l 924 945 l 859 831 "},"ċ":{"ha":1339,"x_min":0,"x_max":1237,"o":"m 1237 130 l 1237 0 l 204 0 q 60 60 119 0 q 0 204 0 119 l 0 551 q 60 695 0 635 q 204 755 119 755 l 1237 755 l 1237 625 l 204 625 q 152 604 174 625 q 130 551 130 582 l 130 204 q 152 152 130 174 q 204 130 174 130 l 1237 130 m 553 831 l 553 962 l 684 962 l 684 831 l 553 831 "},"č":{"ha":1339,"x_min":0,"x_max":1237,"o":"m 1237 130 l 1237 0 l 204 0 q 60 60 119 0 q 0 204 0 119 l 0 551 q 60 695 0 635 q 204 755 119 755 l 1237 755 l 1237 625 l 204 625 q 152 604 174 625 q 130 551 130 582 l 130 204 q 152 152 130 174 q 204 130 174 130 l 1237 130 m 618 972 l 859 1110 l 924 997 l 650 841 q 586 841 618 822 l 313 997 l 377 1110 l 618 972 "},"ď":{"ha":1404,"x_min":0,"x_max":1302,"o":"m 130 130 l 924 130 q 1099 203 1027 130 q 1172 378 1172 275 q 1099 553 1172 480 q 924 625 1027 625 l 130 625 l 130 130 m 924 0 l 65 0 q 19 19 38 0 q 0 65 0 38 l 0 690 q 19 736 0 717 q 65 755 38 755 l 924 755 q 1192 644 1080 755 q 1302 378 1302 534 q 1192 111 1302 222 q 924 0 1080 0 m 650 972 l 892 1110 l 957 997 l 683 841 q 618 841 651 822 l 345 997 l 410 1110 l 650 972 "},"đ":{"ha":1465,"x_min":0,"x_max":1363,"o":"m 0 443 l 61 443 l 61 690 q 80 736 61 717 q 126 755 99 755 l 985 755 q 1253 644 1141 755 q 1363 378 1363 534 q 1253 111 1363 222 q 985 0 1141 0 l 126 0 q 80 19 99 0 q 61 65 61 38 l 61 313 l 0 313 l 0 443 m 191 443 l 422 443 l 422 313 l 191 313 l 191 130 l 985 130 q 1160 203 1088 130 q 1233 378 1233 275 q 1160 553 1233 480 q 985 625 1088 625 l 191 625 l 191 443 "},"ē":{"ha":1373,"x_min":0,"x_max":1272,"o":"m 1272 308 l 130 308 l 130 204 q 152 152 130 174 q 204 130 174 130 l 1067 130 q 1120 152 1098 130 q 1141 204 1141 174 l 1141 206 l 1272 206 l 1272 204 q 1212 60 1272 119 q 1076 0 1155 3 l 196 0 q 60 60 117 3 q 0 204 0 119 l 0 551 q 60 695 0 635 q 196 755 117 753 l 1076 755 q 1212 695 1155 753 q 1272 551 1272 635 l 1272 308 m 1067 625 l 204 625 q 152 604 174 625 q 130 551 130 582 l 130 438 l 1141 438 l 1141 551 q 1120 604 1141 582 q 1067 625 1098 625 m 847 830 l 425 830 l 425 960 l 847 960 l 847 830 "},"ĕ":{"ha":1373,"x_min":0,"x_max":1272,"o":"m 1272 308 l 130 308 l 130 204 q 152 152 130 174 q 204 130 174 130 l 1067 130 q 1120 152 1098 130 q 1141 204 1141 174 l 1141 206 l 1272 206 l 1272 204 q 1212 60 1272 119 q 1076 0 1155 3 l 196 0 q 60 60 117 3 q 0 204 0 119 l 0 551 q 60 695 0 635 q 196 755 117 753 l 1076 755 q 1212 695 1155 753 q 1272 551 1272 635 l 1272 308 m 1067 625 l 204 625 q 152 604 174 625 q 130 551 130 582 l 130 438 l 1141 438 l 1141 551 q 1120 604 1141 582 q 1067 625 1098 625 m 636 830 m 506 1001 q 636 960 545 960 l 643 960 q 661 962 651 961 q 713 972 689 965 q 789 1051 789 995 l 920 1051 q 814 875 920 935 q 722 840 774 852 q 636 830 677 830 q 410 912 486 830 q 365 985 380 944 q 352 1051 352 1019 l 482 1051 l 482 1049 l 483 1044 q 486 1031 484 1038 q 506 1001 492 1015 "},"ė":{"ha":1373,"x_min":0,"x_max":1272,"o":"m 1272 308 l 130 308 l 130 204 q 152 152 130 174 q 204 130 174 130 l 1067 130 q 1120 152 1098 130 q 1141 204 1141 174 l 1141 206 l 1272 206 l 1272 204 q 1212 60 1272 119 q 1076 0 1155 3 l 196 0 q 60 60 117 3 q 0 204 0 119 l 0 551 q 60 695 0 635 q 196 755 117 753 l 1076 755 q 1212 695 1155 753 q 1272 551 1272 635 l 1272 308 m 1067 625 l 204 625 q 152 604 174 625 q 130 551 130 582 l 130 438 l 1141 438 l 1141 551 q 1120 604 1141 582 q 1067 625 1098 625 m 571 830 l 571 960 l 701 960 l 701 830 l 571 830 "},"ě":{"ha":1373,"x_min":0,"x_max":1272,"o":"m 1272 308 l 130 308 l 130 204 q 152 152 130 174 q 204 130 174 130 l 1067 130 q 1120 152 1098 130 q 1141 204 1141 174 l 1141 206 l 1272 206 l 1272 204 q 1212 60 1272 119 q 1076 0 1155 3 l 196 0 q 60 60 117 3 q 0 204 0 119 l 0 551 q 60 695 0 635 q 196 755 117 753 l 1076 755 q 1212 695 1155 753 q 1272 551 1272 635 l 1272 308 m 1067 625 l 204 625 q 152 604 174 625 q 130 551 130 582 l 130 438 l 1141 438 l 1141 551 q 1120 604 1141 582 q 1067 625 1098 625 m 635 970 l 877 1109 l 942 996 l 668 840 q 604 840 636 821 l 330 996 l 395 1109 l 635 970 "},"ĝ":{"ha":1308,"x_min":0,"x_max":1206,"o":"m 1076 460 l 1206 460 l 1206 204 q 1147 60 1206 119 q 1002 0 1087 0 l 204 0 q 60 60 119 0 q 0 204 0 119 l 0 551 q 60 695 0 635 q 204 755 119 755 l 1206 755 l 1206 625 l 204 625 q 152 604 174 625 q 130 551 130 582 l 130 204 q 152 152 130 174 q 204 130 174 130 l 1002 130 q 1055 152 1033 130 q 1076 204 1076 174 l 1076 460 m 844 830 l 603 968 l 361 830 l 297 943 l 570 1099 q 635 1099 603 1118 l 909 943 l 844 830 "},"ğ":{"ha":1308,"x_min":0,"x_max":1206,"o":"m 1076 460 l 1206 460 l 1206 204 q 1147 60 1206 119 q 1002 0 1087 0 l 204 0 q 60 60 119 0 q 0 204 0 119 l 0 551 q 60 695 0 635 q 204 755 119 755 l 1206 755 l 1206 625 l 204 625 q 152 604 174 625 q 130 551 130 582 l 130 204 q 152 152 130 174 q 204 130 174 130 l 1002 130 q 1055 152 1033 130 q 1076 204 1076 174 l 1076 460 m 604 831 m 473 1002 q 604 961 513 961 l 610 961 q 628 962 618 962 q 681 972 656 966 q 757 1052 757 996 l 887 1052 q 782 876 887 936 q 689 841 741 852 q 604 831 645 831 q 377 913 454 831 q 332 985 347 945 q 319 1052 319 1019 l 450 1052 l 450 1050 l 450 1045 q 454 1032 452 1039 q 473 1002 460 1015 "},"ġ":{"ha":1308,"x_min":0,"x_max":1206,"o":"m 1076 460 l 1206 460 l 1206 204 q 1147 60 1206 119 q 1002 0 1087 0 l 204 0 q 60 60 119 0 q 0 204 0 119 l 0 551 q 60 695 0 635 q 204 755 119 755 l 1206 755 l 1206 625 l 204 625 q 152 604 174 625 q 130 551 130 582 l 130 204 q 152 152 130 174 q 204 130 174 130 l 1002 130 q 1055 152 1033 130 q 1076 204 1076 174 l 1076 460 m 538 831 l 538 961 l 668 961 l 668 831 l 538 831 "},"ģ":{"ha":1308,"x_min":0,"x_max":1206,"o":"m 1076 460 l 1206 460 l 1206 204 q 1147 60 1206 119 q 1002 0 1087 0 l 204 0 q 60 60 119 0 q 0 204 0 119 l 0 551 q 60 695 0 635 q 204 755 119 755 l 1206 755 l 1206 625 l 204 625 q 152 604 174 625 q 130 551 130 582 l 130 204 q 152 152 130 174 q 204 130 174 130 l 1002 130 q 1055 152 1033 130 q 1076 204 1076 174 l 1076 460 m 538 -321 l 570 -209 l 538 -209 l 538 -79 l 669 -79 l 669 -209 l 616 -321 l 538 -321 "},"ĥ":{"ha":1343,"x_min":0,"x_max":1241,"o":"m 1111 443 l 1111 755 l 1241 755 l 1241 0 l 1111 0 l 1111 313 l 130 313 l 130 0 l 0 0 l 0 755 l 130 755 l 130 443 l 1111 443 m 861 831 l 621 969 l 379 831 l 315 944 l 588 1100 q 652 1100 621 1119 l 926 944 l 861 831 "},"ħ":{"ha":1343,"x_min":-45,"x_max":1288,"o":"m 1288 530 l 1241 530 l 1241 0 l 1111 0 l 1111 313 l 130 313 l 130 0 l 0 0 l 0 530 l -45 530 l -45 661 l 0 661 l 0 755 l 130 755 l 130 661 l 1111 661 l 1111 755 l 1241 755 l 1241 661 l 1288 661 l 1288 530 m 1111 530 l 130 530 l 130 443 l 1111 443 l 1111 530 "},"ĩ":{"ha":232,"x_min":-274,"x_max":406,"o":"m 0 0 l 0 754 l 130 754 l 130 0 l 0 0 m -144 867 l -274 867 q -242 978 -274 931 q -158 1040 -211 1025 q -57 1042 -111 1054 q -12 1029 -36 1038 l 9 1021 l 29 1013 l 31 1013 l 38 1009 l 44 1006 l 51 1004 l 65 998 q 96 986 81 991 q 164 966 134 972 q 267 985 245 947 q 273 1000 270 990 q 275 1023 275 1012 l 406 1023 q 405 1005 406 1015 q 401 979 404 992 q 380 919 395 945 q 184 831 321 819 q 75 856 134 836 q 27 873 52 863 q 6 882 18 877 l -3 886 l -12 889 q -19 892 -19 892 l -20 892 q -121 916 -94 923 q -138 898 -132 912 q -144 867 -144 884 "},"ī":{"ha":232,"x_min":-143,"x_max":279,"o":"m 0 0 l 0 754 l 130 754 l 130 0 l 0 0 m 279 831 l -143 831 l -143 961 l 279 961 l 279 831 "},"ĭ":{"ha":669,"x_min":0,"x_max":568,"o":"m 218 0 l 218 754 l 349 754 l 349 0 l 218 0 m 283 891 m 154 1002 q 284 961 193 961 l 291 961 q 309 962 299 962 q 361 972 337 966 q 437 1052 437 996 l 568 1052 q 463 876 568 936 q 370 841 422 852 q 284 831 326 831 q 58 913 134 831 q 13 985 28 945 q 0 1052 0 1019 l 130 1052 l 130 1050 l 131 1045 q 134 1032 132 1039 q 154 1002 140 1015 "},"į":{"ha":238,"x_min":0,"x_max":222,"o":"m 0 -98 l 0 754 l 130 754 l 130 -98 q 134 -123 131 -111 q 146 -154 138 -140 q 222 -189 169 -189 l 222 -319 q 50 -242 111 -319 q 0 -98 0 -179 "},"ĳ":{"ha":1337,"x_min":0,"x_max":1235,"o":"m 0 0 l 0 754 l 130 754 l 130 0 l 0 0 m 1105 755 l 1235 755 l 1235 204 q 1175 60 1235 119 q 1031 0 1116 0 l 233 0 l 233 130 l 1031 130 q 1083 152 1062 130 q 1105 204 1105 174 l 1105 755 "},"ĵ":{"ha":1104,"x_min":0,"x_max":1243,"o":"m 872 755 l 1002 755 l 1002 204 q 943 60 1002 119 q 799 0 883 0 l 0 0 l 0 130 l 799 130 q 850 152 829 130 q 872 204 872 174 l 872 755 m 1178 829 l 937 968 l 696 829 l 631 943 l 905 1099 q 969 1099 937 1118 l 1243 943 l 1178 829 "},"ķ":{"ha":1264,"x_min":0,"x_max":1162,"o":"m 1161 646 l 732 441 l 1162 87 l 1080 -14 l 603 380 l 130 154 l 130 1 l 0 1 l 0 755 l 130 755 l 130 298 l 1105 764 l 1161 646 m 516 -321 l 547 -209 l 516 -209 l 516 -79 l 646 -79 l 646 -209 l 594 -321 l 516 -321 "},"ĺ":{"ha":1104,"x_min":0,"x_max":1002,"o":"m 0 755 l 130 755 l 130 204 q 152 152 130 174 q 204 130 174 130 l 1002 130 l 1002 0 l 204 0 q 60 60 119 0 q 0 204 0 119 l 0 755 m 486 832 l 397 927 l 621 1139 l 710 1044 l 486 832 "},"ļ":{"ha":1104,"x_min":0,"x_max":1002,"o":"m 0 755 l 130 755 l 130 204 q 152 152 130 174 q 204 130 174 130 l 1002 130 l 1002 0 l 204 0 q 60 60 119 0 q 0 204 0 119 l 0 755 m 436 -321 l 467 -209 l 436 -209 l 436 -79 l 566 -79 l 566 -209 l 514 -321 l 436 -321 "},"ľ":{"ha":1104,"x_min":0,"x_max":1002,"o":"m 0 755 l 130 755 l 130 204 q 152 152 130 174 q 204 130 174 130 l 1002 130 l 1002 0 l 204 0 q 60 60 119 0 q 0 204 0 119 l 0 755 m 610 513 l 641 625 l 610 625 l 610 755 l 740 755 l 740 625 l 688 513 l 610 513 "},"ŀ":{"ha":1104,"x_min":0,"x_max":1002,"o":"m 0 755 l 130 755 l 130 204 q 152 152 130 174 q 204 130 174 130 l 1002 130 l 1002 0 l 204 0 q 60 60 119 0 q 0 204 0 119 l 0 755 m 553 408 l 553 538 l 684 538 l 684 408 l 553 408 "},"ņ":{"ha":1308,"x_min":0,"x_max":1206,"o":"m 130 555 l 130 0 l 0 0 l 0 555 q 60 700 0 640 q 204 760 119 760 l 1002 760 q 1147 700 1087 760 q 1206 555 1206 640 l 1206 0 l 1076 0 l 1076 555 q 1055 608 1076 586 q 1002 629 1033 629 l 204 629 q 152 608 174 629 q 130 555 130 586 m 538 -321 l 570 -209 l 538 -209 l 538 -79 l 669 -79 l 669 -209 l 616 -321 l 538 -321 "},"ň":{"ha":1308,"x_min":0,"x_max":1206,"o":"m 130 555 l 130 0 l 0 0 l 0 555 q 60 700 0 640 q 204 760 119 760 l 1002 760 q 1147 700 1087 760 q 1206 555 1206 640 l 1206 0 l 1076 0 l 1076 555 q 1055 608 1076 586 q 1002 629 1033 629 l 204 629 q 152 608 174 629 q 130 555 130 586 m 603 970 l 844 1109 l 909 996 l 635 840 q 571 840 604 821 l 298 996 l 362 1109 l 603 970 "},"ŉ":{"ha":1506,"x_min":0,"x_max":1404,"o":"m 328 555 l 328 0 l 198 0 l 198 555 q 258 700 198 640 q 402 760 317 760 l 1200 760 q 1345 700 1285 760 q 1404 555 1404 640 l 1404 0 l 1274 0 l 1274 555 q 1253 608 1274 586 q 1200 629 1231 629 l 402 629 q 350 608 372 629 q 328 555 328 586 m 0 513 l 31 625 l 0 625 l 0 755 l 130 755 l 130 625 l 78 513 l 0 513 "},"ŋ":{"ha":1308,"x_min":0,"x_max":1206,"o":"m 1206 555 l 1206 -13 q 1147 -157 1206 -98 q 1003 -217 1087 -217 l 878 -217 l 878 -87 l 1003 -87 q 1055 -65 1034 -87 q 1076 -13 1076 -43 l 1076 555 q 1055 608 1076 586 q 1002 629 1033 629 l 204 629 q 152 608 174 629 q 130 555 130 586 l 130 0 l 0 0 l 0 555 q 60 700 0 640 q 204 760 119 760 l 1002 760 q 1147 700 1087 760 q 1206 555 1206 640 "},"ō":{"ha":1308,"x_min":0,"x_max":1206,"o":"m 1206 551 l 1206 204 q 1147 60 1206 119 q 1002 0 1087 0 l 204 0 q 60 60 119 0 q 0 204 0 119 l 0 551 q 60 695 0 635 q 204 755 119 755 l 1002 755 q 1147 695 1087 755 q 1206 551 1206 635 m 1076 204 l 1076 551 q 1055 604 1076 582 q 1002 625 1033 625 l 204 625 q 152 604 174 625 q 130 551 130 582 l 130 204 q 152 152 130 174 q 204 130 174 130 l 1002 130 q 1055 152 1033 130 q 1076 204 1076 174 m 814 891 l 392 891 l 392 1021 l 814 1021 l 814 891 "},"ŏ":{"ha":1308,"x_min":0,"x_max":1206,"o":"m 1206 551 l 1206 204 q 1147 60 1206 119 q 1002 0 1087 0 l 204 0 q 60 60 119 0 q 0 204 0 119 l 0 551 q 60 695 0 635 q 204 755 119 755 l 1002 755 q 1147 695 1087 755 q 1206 551 1206 635 m 1076 204 l 1076 551 q 1055 604 1076 582 q 1002 625 1033 625 l 204 625 q 152 604 174 625 q 130 551 130 582 l 130 204 q 152 152 130 174 q 204 130 174 130 l 1002 130 q 1055 152 1033 130 q 1076 204 1076 174 m 604 891 m 473 1062 q 604 1021 513 1021 l 610 1021 q 628 1023 618 1022 q 681 1033 656 1026 q 757 1112 757 1056 l 887 1112 q 782 936 887 996 q 689 901 741 913 q 604 891 645 891 q 377 973 454 891 q 332 1046 347 1005 q 319 1112 319 1080 l 450 1112 l 450 1110 l 450 1105 q 454 1093 452 1099 q 473 1062 460 1076 "},"ő":{"ha":1308,"x_min":0,"x_max":1206,"o":"m 1206 551 l 1206 204 q 1147 60 1206 119 q 1002 0 1087 0 l 204 0 q 60 60 119 0 q 0 204 0 119 l 0 551 q 60 695 0 635 q 204 755 119 755 l 1002 755 q 1147 695 1087 755 q 1206 551 1206 635 m 1076 204 l 1076 551 q 1055 604 1076 582 q 1002 625 1033 625 l 204 625 q 152 604 174 625 q 130 551 130 582 l 130 204 q 152 152 130 174 q 204 130 174 130 l 1002 130 q 1055 152 1033 130 q 1076 204 1076 174 m 471 892 l 356 954 l 495 1272 l 610 1210 l 471 892 m 711 892 l 596 954 l 735 1272 l 850 1210 l 711 892 "},"œ":{"ha":2201,"x_min":0,"x_max":2100,"o":"m 947 204 l 947 551 q 926 604 947 582 q 873 625 904 625 l 204 625 q 152 604 174 625 q 130 551 130 582 l 130 204 q 152 152 130 174 q 204 130 174 130 l 873 130 q 926 152 904 130 q 947 204 947 174 m 1895 625 l 1154 625 q 1102 604 1124 625 q 1080 551 1080 582 l 1080 438 l 1969 438 l 1969 551 q 1948 604 1969 582 q 1895 625 1926 625 m 1014 56 q 873 0 956 0 l 204 0 q 60 60 119 0 q 0 204 0 119 l 0 551 q 60 695 0 635 q 204 755 119 755 l 873 755 q 1014 699 956 755 q 1146 755 1069 753 l 1904 755 q 2040 695 1983 753 q 2100 551 2100 635 l 2100 308 l 1080 308 l 1080 204 q 1102 152 1080 174 q 1154 130 1124 130 l 1895 130 q 1948 152 1926 130 q 1969 204 1969 174 l 1969 206 l 2100 206 l 2100 204 q 2040 60 2100 119 q 1904 0 1983 3 l 1146 0 q 1014 56 1069 3 "},"ŕ":{"ha":1326,"x_min":0,"x_max":1224,"o":"m 130 370 l 966 370 q 1074 423 1041 370 q 1090 465 1085 441 q 1093 484 1092 475 q 1094 498 1094 491 q 1041 605 1094 572 q 999 621 1023 616 q 981 624 989 623 q 966 625 973 625 l 161 625 q 134 612 141 625 q 131 602 132 608 l 130 597 l 130 370 m 888 240 l 130 240 l 130 0 l 0 0 l 0 594 q 56 719 0 674 q 161 755 102 755 l 966 755 q 1134 697 1061 755 q 1224 498 1224 626 q 1166 330 1224 404 q 1055 253 1121 274 l 1177 123 l 1222 76 l 1128 -14 l 1083 33 l 927 198 l 888 240 m 594 831 l 505 926 l 729 1138 l 819 1043 l 594 831 "},"ŗ":{"ha":1326,"x_min":0,"x_max":1224,"o":"m 130 370 l 966 370 q 1074 423 1041 370 q 1090 465 1085 441 q 1093 484 1092 475 q 1094 498 1094 491 q 1041 605 1094 572 q 999 621 1023 616 q 981 624 989 623 q 966 625 973 625 l 161 625 q 134 612 141 625 q 131 602 132 608 l 130 597 l 130 370 m 888 240 l 130 240 l 130 0 l 0 0 l 0 594 q 56 719 0 674 q 161 755 102 755 l 966 755 q 1134 697 1061 755 q 1224 498 1224 626 q 1166 330 1224 404 q 1055 253 1121 274 l 1177 123 l 1222 76 l 1128 -14 l 1083 33 l 927 198 l 888 240 m 547 -321 l 578 -209 l 547 -209 l 547 -79 l 677 -79 l 677 -209 l 625 -321 l 547 -321 "},"ř":{"ha":1326,"x_min":0,"x_max":1224,"o":"m 130 370 l 966 370 q 1074 423 1041 370 q 1090 465 1085 441 q 1093 484 1092 475 q 1094 498 1094 491 q 1041 605 1094 572 q 999 621 1023 616 q 981 624 989 623 q 966 625 973 625 l 161 625 q 134 612 141 625 q 131 602 132 608 l 130 597 l 130 370 m 888 240 l 130 240 l 130 0 l 0 0 l 0 594 q 56 719 0 674 q 161 755 102 755 l 966 755 q 1134 697 1061 755 q 1224 498 1224 626 q 1166 330 1224 404 q 1055 253 1121 274 l 1177 123 l 1222 76 l 1128 -14 l 1083 33 l 927 198 l 888 240 m 612 972 l 853 1110 l 918 997 l 644 841 q 580 841 612 822 l 307 997 l 371 1110 l 612 972 "},"ŝ":{"ha":1256,"x_min":-20,"x_max":1175,"o":"m 818 831 l 577 970 l 336 831 l 271 945 l 545 1101 q 609 1101 577 1120 l 883 945 l 818 831 m 1154 755 l 1154 625 l 201 625 q 176 622 188 625 q 145 610 159 618 q 110 534 110 587 q 113 509 110 521 q 125 478 117 491 q 201 443 149 443 l 954 443 q 1097 393 1035 443 q 1175 221 1175 332 q 1125 77 1175 140 q 954 0 1064 0 l 0 0 l 0 130 l 954 130 q 1029 165 1006 130 q 1042 196 1038 178 q 1044 221 1044 208 q 1009 297 1044 274 q 979 309 996 305 q 954 313 966 312 l 201 313 q 29 390 91 313 q -20 534 -20 452 q 57 705 -20 644 q 201 755 120 755 l 1154 755 "},"ş":{"ha":1256,"x_min":-20,"x_max":1175,"o":"m 954 0 l 673 0 l 654 -58 q 722 -96 694 -70 q 763 -150 748 -118 q 783 -245 783 -191 l 783 -250 q 782 -260 783 -254 q 776 -289 780 -274 q 728 -367 762 -334 q 521 -437 658 -437 l 521 -307 q 632 -279 598 -307 q 649 -258 644 -269 q 652 -249 651 -253 l 652 -245 l 653 -244 l 652 -245 q 636 -193 652 -208 q 602 -178 625 -182 q 586 -176 594 -177 l 575 -176 q 517 -153 539 -180 q 506 -92 494 -125 l 536 0 l 0 0 l 0 130 l 954 130 q 1029 165 1006 130 q 1042 196 1038 178 q 1044 221 1044 208 q 1009 297 1044 274 q 979 309 996 305 q 954 313 966 312 l 201 313 q 29 390 91 313 q -20 534 -20 452 q 57 705 -20 644 q 201 755 120 755 l 1154 755 l 1154 625 l 201 625 q 176 622 188 625 q 145 610 159 618 q 110 534 110 587 q 113 509 110 521 q 125 478 117 491 q 201 443 149 443 l 954 443 q 1097 393 1035 443 q 1175 221 1175 332 q 1125 77 1175 140 q 954 0 1064 0 "},"š":{"ha":1256,"x_min":-20,"x_max":1175,"o":"m 577 970 l 818 1109 l 883 996 l 609 840 q 545 840 577 821 l 271 996 l 336 1109 l 577 970 m 1154 755 l 1154 625 l 201 625 q 176 622 188 625 q 145 610 159 618 q 110 534 110 587 q 113 509 110 521 q 125 478 117 491 q 201 443 149 443 l 954 443 q 1097 393 1035 443 q 1175 221 1175 332 q 1125 77 1175 140 q 954 0 1064 0 l 0 0 l 0 130 l 954 130 q 1029 165 1006 130 q 1042 196 1038 178 q 1044 221 1044 208 q 1009 297 1044 274 q 979 309 996 305 q 954 313 966 312 l 201 313 q 29 390 91 313 q -20 534 -20 452 q 57 705 -20 644 q 201 755 120 755 l 1154 755 "},"ţ":{"ha":1482,"x_min":0,"x_max":1380,"o":"m 596 -46 q 625 87 626 0 l 625 625 l 0 625 l 0 755 l 1380 755 l 1380 625 l 755 625 l 755 87 q 715 -58 753 0 q 783 -96 754 -70 q 823 -150 808 -118 q 843 -245 843 -191 l 843 -250 q 842 -260 843 -254 q 836 -289 840 -274 q 789 -367 823 -334 q 581 -437 718 -437 l 581 -307 q 692 -279 659 -307 q 709 -258 704 -269 q 712 -249 711 -253 l 713 -245 l 713 -244 l 713 -245 q 696 -193 713 -208 q 663 -178 685 -182 q 646 -176 654 -177 l 635 -176 q 577 -153 600 -180 q 561 -109 555 -125 q 581 -69 566 -92 q 596 -46 596 -46 "},"ť":{"ha":1482,"x_min":0,"x_max":1380,"o":"m 625 0 l 625 625 l 0 625 l 0 755 l 1380 755 l 1380 625 l 755 625 l 755 0 l 625 0 m 690 970 l 931 1109 l 996 996 l 722 840 q 658 840 690 821 l 385 996 l 449 1109 l 690 970 "},"ŧ":{"ha":1482,"x_min":0,"x_max":1380,"o":"m 901 313 l 755 313 l 755 0 l 625 0 l 625 313 l 479 313 l 479 443 l 625 443 l 625 625 l 0 625 l 0 755 l 1380 755 l 1380 625 l 755 625 l 755 443 l 901 443 l 901 313 "},"ũ":{"ha":1308,"x_min":0,"x_max":1206,"o":"m 130 755 l 130 204 q 152 152 130 174 q 204 130 174 130 l 1002 130 q 1055 152 1033 130 q 1076 204 1076 174 l 1076 755 l 1206 755 l 1206 204 q 1147 60 1206 119 q 1002 0 1087 0 l 204 0 q 60 60 119 0 q 0 204 0 119 l 0 755 l 130 755 m 394 867 l 264 867 q 295 978 264 931 q 380 1040 327 1025 q 481 1042 427 1054 q 526 1029 502 1038 l 547 1021 l 567 1013 l 568 1013 l 576 1009 l 582 1006 l 589 1004 l 602 998 q 633 986 619 991 q 701 966 672 972 q 804 985 783 947 q 810 1000 808 990 q 812 1023 812 1012 l 943 1023 q 942 1005 943 1015 q 939 979 941 992 q 917 919 932 945 q 721 831 859 819 q 612 856 672 836 q 564 873 589 863 q 544 882 555 877 l 534 886 l 526 889 q 518 892 518 892 l 517 892 q 416 916 444 923 q 399 898 406 912 q 394 867 394 884 "},"ū":{"ha":1308,"x_min":0,"x_max":1206,"o":"m 130 755 l 130 204 q 152 152 130 174 q 204 130 174 130 l 1002 130 q 1055 152 1033 130 q 1076 204 1076 174 l 1076 755 l 1206 755 l 1206 204 q 1147 60 1206 119 q 1002 0 1087 0 l 204 0 q 60 60 119 0 q 0 204 0 119 l 0 755 l 130 755 m 814 831 l 392 831 l 392 961 l 814 961 l 814 831 "},"ŭ":{"ha":1308,"x_min":0,"x_max":1206,"o":"m 130 755 l 130 204 q 152 152 130 174 q 204 130 174 130 l 1002 130 q 1055 152 1033 130 q 1076 204 1076 174 l 1076 755 l 1206 755 l 1206 204 q 1147 60 1206 119 q 1002 0 1087 0 l 204 0 q 60 60 119 0 q 0 204 0 119 l 0 755 l 130 755 m 604 891 m 473 1002 q 604 961 513 961 l 610 961 q 628 962 618 962 q 681 972 656 966 q 757 1052 757 996 l 887 1052 q 782 876 887 936 q 689 841 741 852 q 604 831 645 831 q 377 913 454 831 q 332 985 347 945 q 319 1052 319 1019 l 450 1052 l 450 1050 l 450 1045 q 454 1032 452 1039 q 473 1002 460 1015 "},"ů":{"ha":1308,"x_min":0,"x_max":1206,"o":"m 130 755 l 130 204 q 152 152 130 174 q 204 130 174 130 l 1002 130 q 1055 152 1033 130 q 1076 204 1076 174 l 1076 755 l 1206 755 l 1206 204 q 1147 60 1206 119 q 1002 0 1087 0 l 204 0 q 60 60 119 0 q 0 204 0 119 l 0 755 l 130 755 m 604 1082 q 514 1045 551 1082 q 477 956 477 1008 q 514 867 477 904 q 604 830 551 830 q 692 867 655 830 q 729 956 729 904 q 692 1045 729 1008 q 604 1082 655 1082 m 604 993 q 629 982 618 993 q 640 956 640 971 q 629 930 640 941 q 604 920 618 920 q 577 930 588 920 q 567 956 567 941 q 577 982 567 971 q 604 993 588 993 "},"ű":{"ha":1308,"x_min":0,"x_max":1206,"o":"m 130 755 l 130 204 q 152 152 130 174 q 204 130 174 130 l 1002 130 q 1055 152 1033 130 q 1076 204 1076 174 l 1076 755 l 1206 755 l 1206 204 q 1147 60 1206 119 q 1002 0 1087 0 l 204 0 q 60 60 119 0 q 0 204 0 119 l 0 755 l 130 755 m 471 832 l 356 894 l 495 1212 l 610 1150 l 471 832 m 711 832 l 596 894 l 735 1212 l 850 1150 l 711 832 "},"ų":{"ha":1308,"x_min":0,"x_max":1206,"o":"m 561 -108 l 561 0 l 204 0 q 60 60 119 0 q 0 204 0 119 l 0 755 l 130 755 l 130 204 q 152 152 130 174 q 204 130 174 130 l 1002 130 q 1055 152 1033 130 q 1076 204 1076 174 l 1076 755 l 1206 755 l 1206 204 q 1147 60 1206 119 q 1002 0 1087 0 l 691 0 l 691 -107 q 694 -133 691 -121 q 707 -163 698 -151 q 782 -199 730 -199 l 782 -329 q 610 -252 672 -329 q 561 -108 561 -189 "},"ŵ":{"ha":1360,"x_min":0,"x_max":1259,"o":"m 694 760 l 694 130 l 1055 130 q 1107 152 1085 130 q 1128 204 1128 174 l 1128 760 l 1259 760 l 1259 204 q 1199 60 1259 119 q 1055 0 1139 0 l 204 0 q 60 60 119 0 q 0 204 0 119 l 0 760 l 130 760 l 130 204 q 152 152 130 174 q 204 130 174 130 l 564 130 l 564 760 l 694 760 m 870 830 l 629 968 l 388 830 l 323 943 l 597 1099 q 661 1099 629 1118 l 935 943 l 870 830 "},"ŷ":{"ha":1308,"x_min":0,"x_max":1206,"o":"m 669 162 l 1002 162 q 1147 222 1087 162 q 1206 366 1206 281 l 1206 755 l 1076 755 l 1076 366 q 1055 314 1076 336 q 1002 292 1033 292 l 204 292 q 152 314 174 292 q 130 366 130 336 l 130 755 l 0 755 l 0 366 q 60 222 0 281 q 204 162 119 162 l 539 162 l 539 0 l 669 0 l 669 162 m 844 830 l 603 968 l 362 830 l 298 943 l 571 1099 q 635 1099 604 1118 l 909 943 l 844 830 "},"ž":{"ha":1361,"x_min":0,"x_max":1259,"o":"m 319 130 l 1221 130 l 1221 0 l 68 0 q 28 14 46 0 q 5 49 11 27 q 9 91 0 71 q 37 122 18 111 l 941 625 l 33 625 l 33 755 l 1190 755 q 1230 741 1213 755 q 1253 707 1248 728 q 1251 665 1259 685 q 1222 633 1242 644 l 319 130 m 629 970 l 870 1109 l 935 996 l 661 840 q 597 840 629 821 l 323 996 l 388 1109 l 629 970 "}}}
